<svg width="25" height="24" viewBox="0 0 25 24" fill="none"
    xmlns="http://www.w3.org/2000/svg">
    <path d="M9.41429 0C11.7785 0 14.0459 0.939181 15.7176 2.61093C17.3894 4.28269 18.3286 6.55007 18.3286 8.91429C18.3286 11.1223 17.5194 13.152 16.1891 14.7154L16.5594 15.0857H17.6429L24.5 21.9429L22.4429 24L15.5857 17.1429V16.0594L15.2154 15.6891C13.652 17.0194 11.6223 17.8286 9.41429 17.8286C7.05007 17.8286 4.78269 16.8894 3.11093 15.2176C1.43918 13.5459 0.5 11.2785 0.5 8.91429C0.5 6.55007 1.43918 4.28269 3.11093 2.61093C4.78269 0.939181 7.05007 0 9.41429 0ZM9.41429 2.74286C5.98571 2.74286 3.24286 5.48571 3.24286 8.91429C3.24286 12.3429 5.98571 15.0857 9.41429 15.0857C12.8429 15.0857 15.5857 12.3429 15.5857 8.91429C15.5857 5.48571 12.8429 2.74286 9.41429 2.74286Z" fill="white"/>
</svg>
