<svg xmlns="http://www.w3.org/2000/svg" viewBox="0 0 24 24">
  <path d="M24,1.4c.24,1.14-.68,1.63-1.31,2.25a2.24,2.24,0,0,0-.85,2.24,3.73,3.73,0,0,1-2.09,4,5.26,5.26,0,0,0-1.34,1.32c-1.44,1.58-3,3.07-4.55,4.51a14,14,0,0,0-1.17,1.14C11.23,18.48,9.73,20,8.18,21.48a2.22,2.22,0,0,1-2.09.57c-1.57-.56-2.31.48-3.2,1.35-.3.28-.59,1-1.15.36s.14-.75.38-1.05a11.66,11.66,0,0,1,.93-.93c.32-.31.48-.59.07-1s-.61-.17-.88.1L1,22.11c-.27.27-.55.46-.88.08s-.1-.55.12-.78.48-.51.74-.75a2.32,2.32,0,0,0,1-2.45,3.6,3.6,0,0,1,2.08-3.9A5.39,5.39,0,0,0,5.39,13c1.47-1.6,3.05-3.11,4.66-4.57.39-.35.85-.58,1-1.1a.23.23,0,0,1,.06-.12c1.47-1.49,2.9-3,4.44-4.44a2.67,2.67,0,0,1,2.48-.58,2.09,2.09,0,0,0,2.35-.88A2.82,2.82,0,0,1,22.68,0C23.74,0,24.14.38,24,1.4ZM17.73,3.2a1.89,1.89,0,0,0-1.38.32A58.49,58.49,0,0,0,11.94,8a11.2,11.2,0,0,1-1.31,1.27,41.55,41.55,0,0,0-4.45,4.45,3.81,3.81,0,0,1-1.42,1.34A3,3,0,0,0,3.3,19.29c.79,1.56,2.9,2.4,4.22,1.32a47.45,47.45,0,0,0,4.2-4.19c.51-.53,1-1.06,1.53-1.56a55.75,55.75,0,0,0,4.28-4.28,4.82,4.82,0,0,1,1.61-1.5,3.06,3.06,0,0,0,1.58-3.55A3.13,3.13,0,0,0,17.73,3.2Zm5.16-1.43c.07-.67-.27-.78-.63-.63a4.09,4.09,0,0,0-1.77,1.65c-.29.45.33,1,.63.77A4.29,4.29,0,0,0,22.89,1.77Z"/>
</svg>
