<svg xmlns="http://www.w3.org/2000/svg" viewBox="0 0 24 24">
  <path d="M12,13c3.51,0,7,0,10.52,0,1.05,0,1.46.22,1.45,1.38a9.1,9.1,0,0,1-9.15,9.18H9a9.17,9.17,0,0,1-9-9.59c0-.86.47-1,1.15-.94C4.79,13,8.41,13,12,13Zm.07,1c-3.31,0-6.62.05-9.93,0-1.06,0-1.24.36-1.19,1.3.17,3.57,3.84,7.24,7.48,7.33q3.58.1,7.17,0c3.75-.11,7.39-3.94,7.4-7.62,0-.8-.24-1-1-1C18.71,13.93,15.41,13.91,12.1,13.91Z"/>
  <path d="M12.21,3.07c-.33,0-.65.07-.68-.41s.33-.63.75-.69l7-1L22.31.54c.53-.08,1,0,1.05.64s-.35.73-.83.78Z"/>
  <path d="M17.34,4.81h5.13c.51,0,1,0,1,.72s-.5.73-1,.71L12.32,5.87c-.41,0-.83,0-.79-.62s.48-.43.8-.43Z"/>
  <path d="M5.3,7.29c0,1.43,0,2.87,0,4.3,0,.34.1.78-.47.76s-.48-.44-.48-.79c0-1.59,0-3.18,0-4.77,0-.89-.16-1.31-1.16-1.27-.55,0-1.61.38-1.61-.36s1-.21,1.61-.34a2.33,2.33,0,0,1,.59,0c.32,0,.55-.06.54-.45S4.1,3.91,3.77,4c-.52.06-1,.11-1.55.15-.27,0-.63.07-.64-.32s.3-.32.54-.36L3.65,3.2c.3-.05.66,0,.7-.47,0-.3.2-.55.55-.49s.39.44.39.75C5.3,4.43,5.3,5.86,5.3,7.29Z"/>
  <path d="M11.08,3.85c0,.67,0,1.35,0,2,0,.31,0,.69-.37.78s-.4-.26-.57-.48c-.42-.55-.83-1-.07-1.63a.8.8,0,0,0,0-.78c-1-.85.14-1.6.07-2.4a.43.43,0,0,1,.46-.45c.37,0,.45.27.45.56,0,.8,0,1.59,0,2.38Z"/>
  <path d="M9.12,3.84V6.1a.53.53,0,0,1-.36.55.42.42,0,0,1-.53-.36c-.07-.55-1.07-1-.13-1.68A.68.68,0,0,0,8.15,4c-.87-.85.13-1.63,0-2.44A.42.42,0,0,1,8.63,1c.38,0,.48.24.48.54C9.13,2.33,9.12,3.09,9.12,3.84Z"/>
  <path d="M7.21,4.12c0,.59,0,1.19,0,1.78,0,.32,0,.68-.41.75s-.45-.23-.54-.51c-.15-.52-.87-1,0-1.57a.43.43,0,0,0,0-.44c-.84-.72,0-1.38,0-2.06,0-.3.13-.56.49-.55s.44.28.44.57c0,.68,0,1.35,0,2Z"/>
</svg>
