<svg xmlns="http://www.w3.org/2000/svg" viewBox="0 0 24 24">
	<path d="M17.6,3.6h0a.92.92,0,0,0-1,.9.82.82,0,0,0,.8.9h.3a.6.6,0,0,0,.4-.1.66.66,0,0,0,.4-.5V4.6C18.6,4.1,18.2,3.7,17.6,3.6Z"/>
	<path d="M3,12.9a1.07,1.07,0,0,0-.6.2.86.86,0,0,0-.3.6v.1a.86.86,0,0,0,.3.6,1.42,1.42,0,0,0,.6.2.89.89,0,0,0,1-.9H4A1,1,0,0,0,3,12.9Z"/>
	<path d="M2.81,7.5h0a.75.75,0,0,0,.5-.1c.1-.1.2-.3.3-.4V6.9h0c0-.4-.4-.6-.8-.6a.65.65,0,0,0-.6.6A.58.58,0,0,0,2.81,7.5Z"/>
	<path d="M20.5,8h0a.75.75,0,0,0,.7-.6.73.73,0,0,0-.6-.7h-.1a.58.58,0,0,0-.6.6.52.52,0,0,0,.2.4A.54.54,0,0,0,20.5,8Zm.1-.2Z"/>
	<path d="M20.5,15.8h.1c.3-.1.6-.4.5-.7s-.1-.3-.3-.4a.75.75,0,0,0-.5-.1h-.1a.52.52,0,0,0-.4.2.6.6,0,0,0-.1.4c.2.3.5.6.8.6Z"/>
	<path d="M23.6,4.3a6.22,6.22,0,0,0-.9-2.6A3.36,3.36,0,0,0,20.6.1a4.24,4.24,0,0,0-2.7.3c-.2.1-.4.3-.6.4a3.49,3.49,0,0,1-2.2.8H2.81C.91,1.7,0,2.5,0,4.1V15.9a2.31,2.31,0,0,0,2.1,2.4H4.7c.06,4.2-.52,5.27,0,5.61A1,1,0,0,0,5.1,24a.85.85,0,0,0,.6-.2,1.09,1.09,0,0,0,.2-1.1v-.5a113.38,113.38,0,0,0,.4-11.6V7.4a1.38,1.38,0,0,1,.1-1.1,5.62,5.62,0,0,1,2.27,7.12h0C6.81,17,6.38,19.86,8.2,23.9a.76.76,0,0,0,.5-.2,1.64,1.64,0,0,0,.2-1,15.29,15.29,0,0,0-.7-2.9A2.51,2.51,0,0,1,8,18.3h6.9a3.07,3.07,0,0,1,2.4.8,3.54,3.54,0,0,0,4.8-.2c.1-.2.3-.3.4-.5a7.71,7.71,0,0,0,1-2.5A37.61,37.61,0,0,0,23.6,4.3ZM9,6.6c-.3-.3-.4-.6-.3-.7s.3-.3.7-.4a4.19,4.19,0,0,1,4.7,1.3l.1.1a1.39,1.39,0,0,0,1.2.7,2.17,2.17,0,0,1,2.3,1.5,2.3,2.3,0,0,1-.4,2.9,11.6,11.6,0,0,1-3.9,2.6,1.7,1.7,0,0,1-.7.1h-.4l-1-.1a1.93,1.93,0,0,1-1.1-.4,2,2,0,0,1,0-1.1A6.68,6.68,0,0,0,9,6.6Zm13.1,8.8a6.19,6.19,0,0,1-.7,1.9,1.82,1.82,0,0,1-1.1,1,1.62,1.62,0,0,1-1.5.1,2.09,2.09,0,0,1-.6-.4,4.3,4.3,0,0,0-2.8-1.1H8.6a8.79,8.79,0,0,0,.6-1l.1-.1c.2-.3.3-.3.7-.1a.37.37,0,0,0,.3.1,6.4,6.4,0,0,0,4.7-.3,22.74,22.74,0,0,0,3.2-2.2,3.8,3.8,0,0,0,1.2-4.2A3.84,3.84,0,0,0,16,6.2a1.91,1.91,0,0,1-1-.5A5.6,5.6,0,0,0,8.2,4.6a1.36,1.36,0,0,1-1.5,0C6,4.2,5.5,4,5.2,4.2s-.4.7-.4,1.5V16.9H2.51c-.9-.1-1-.3-1-1.1V4.2a1.22,1.22,0,0,1,.3-.9A1.44,1.44,0,0,1,2.91,3H15.5a3.19,3.19,0,0,0,2.6-1A2.06,2.06,0,0,1,21,1.7a2.1,2.1,0,0,1,.7,1.1,13.17,13.17,0,0,1,.8,4.4A32.26,32.26,0,0,1,22.1,15.4Z"/>
</svg>
