<svg xmlns="http://www.w3.org/2000/svg" viewBox="0 0 24 24">
  <path d="M12,21.12H4.05c-2.21,0-3.06-.86-3.06-3a3.91,3.91,0,0,0-.72-2.9,1.51,1.51,0,0,1,.17-1.89c.8-1.17.78-1.85-.12-2.88a.62.62,0,0,1,0-.94,4.08,4.08,0,0,0,.82-2A5.57,5.57,0,0,1,6.55,2.93q5.45-.11,10.9,0a5.62,5.62,0,0,1,5.48,4.66,2.43,2.43,0,0,0,.2.92c.6.85,1.37,1.56,0,2.54-.36.25-.35,1.35.22,2a1.83,1.83,0,0,1,0,2.77c-.56.59-.32,1.29-.32,1.94,0,2.7-.71,3.39-3.43,3.39Zm.15-4.79c-3,0-6.06,0-9.1,0-.81,0-1.18.23-1.08,1.08a7.79,7.79,0,0,1,0,1.08,1.49,1.49,0,0,0,1.61,1.68q8.49,0,17,0a1.42,1.42,0,0,0,1.53-1.6,9.71,9.71,0,0,1,0-1.08c.12-.88-.21-1.17-1.11-1.15C18,16.36,15.06,16.33,12.11,16.33ZM12,8.17c3,0,6,0,9,0,.95,0,1.07-.33.79-1.13a4.65,4.65,0,0,0-4.36-3.17c-3.63-.06-7.27-.07-10.9,0A4.53,4.53,0,0,0,2.26,7c-.33.79-.26,1.22.8,1.2C6.05,8.14,9.05,8.17,12,8.17ZM12,15.36h9.56c.71,0,1.48,0,1.47-1s-.77-1-1.47-1h-19c-.71,0-1.48,0-1.48,1s.78,1,1.49,1Zm0-2.87h9.33c.34,0,.78.08.78-.47,0-.3.15-.81-.21-.84-1-.06-1.79-.86-2.85-.23a3.22,3.22,0,0,1-3.32,0,1.44,1.44,0,0,0-1.56,0,3.91,3.91,0,0,1-4.09,0,1.41,1.41,0,0,0-1.56,0,3,3,0,0,1-2.77.24A3.43,3.43,0,0,0,2.88,11c-.5.17-1,.1-.95.88s.63.59,1.06.59C6,12.5,9,12.49,12,12.49Zm.14-3.35c-3,0-6.06,0-9.09,0-.49,0-1-.19-1.45.3a.27.27,0,0,0,0,.42A1.91,1.91,0,0,0,3.26,10a.72.72,0,0,0,.22-.08A1.5,1.5,0,0,1,5.35,10a2.63,2.63,0,0,0,2.94,0,1.59,1.59,0,0,1,1.88,0,2.69,2.69,0,0,0,2.38.52c1.51-.64,2.94-1.09,4.45-.09a.31.31,0,0,0,.23,0c1.56-.49,3.13-.92,4.75-.29,0,0,.08,0,.12,0,.23-.06.53-.07.54-.36a.54.54,0,0,0-.51-.56,7.71,7.71,0,0,0-1,0Z"/>
  <path d="M6,4.88a.64.64,0,0,1,.67.68.6.6,0,0,1-.6.63.63.63,0,0,1-.73-.62C5.33,5.16,5.61,4.93,6,4.88Z"/>
  <path d="M9.09,5c0,.43-.22.7-.64.71a.65.65,0,0,1-.11-1.3A.64.64,0,0,1,9.09,5Z"/>
  <path d="M8.13,7a.64.64,0,0,1-.74.61.65.65,0,0,1,.09-1.3C7.9,6.33,8.11,6.6,8.13,7Z"/>
</svg>
