<svg xmlns="http://www.w3.org/2000/svg" viewBox="0 0 24 24">
  <path d="M.71,0C3.32,2.64,5.93,5.29,8.55,7.92a1.51,1.51,0,0,0,2.11-.41c.45-.89.67-2,2.1-1.87.31,0,.23-.44.37-.66.54-.84.68-2.18,2.25-1.65.33.11.37-.34.51-.57a4.33,4.33,0,0,1,1.57-1.61c.32-.18.83-.4,1-.15.72,1.11,1.31.16,2,0C21.36.69,22.51,0,23.25.72s0,1.8-.19,2.71c-.19.72-1,1.22-.12,2.24.54.58-.55,1.5-1.21,2.08-.48.43-1.33.47-1,1.62.18.57-.82,1.07-1.48,1.38-.48.24-.94.25-1,1.11s-1,1.15-1.76,1.45A1.48,1.48,0,0,0,16,15.39l8,7.94v.48c-.67.49-1-.07-1.39-.45L12.27,13,.66,1.36C.3,1-.35.68.23,0ZM14.62,14.08c-.06-.09,0-.11,0-.07l-.08.06c-.26,0-.3-.15-.26-.35v-.05l0,0ZM10.31,9.75l0-.07-.08.06c-.26,0-.3-.14-.26-.36v0l0,0C10.12,9.5,10.22,9.62,10.31,9.75ZM20.1,4.58a2.6,2.6,0,0,0,2.36-2.73c-.06-.23-.18-.3-.41-.33a2.6,2.6,0,0,0-2.66,2.27C19.38,4.33,19.55,4.65,20.1,4.58Zm-2.38,5.57c.76-.07,1.84-.2,1.83-.94,0-.9-1.17-1.09-1.95-1.19S16,8.26,16,9.06,16.93,10.09,17.72,10.15ZM13.84,6.28A1.87,1.87,0,0,0,14.7,8c.31.16.54,0,.73-.22a1.72,1.72,0,0,0,.42-2c-.27-.55-.38-1.52-1-1.4S13.92,5.51,13.84,6.28Zm1.45,6.31c.77-.07,1.86-.23,1.84-.95s-1.13-1.12-2-1.15-1.64.2-1.61,1S14.52,12.51,15.29,12.59ZM13.53,8.72c-.16-.68-.33-1.86-1.14-1.84s-1,1.17-1,2a.52.52,0,0,0,0,.11c.13.68.32,1.51,1.11,1.44S13.45,9.56,13.53,8.72Zm6.82-3.18a2,2,0,0,0-2,1,.48.48,0,0,0,.22.7,2,2,0,0,0,2.34,0c.46-.28,1.11-.62.93-1.23S21,5.52,20.35,5.54ZM18.43,3.61c0-.53.27-1.27-.43-1.43s-.9.53-1.22,1a2.12,2.12,0,0,0-.11.21,2.07,2.07,0,0,0,.12,2.07.5.5,0,0,0,.71.23,1.86,1.86,0,0,0,.93-1.82Z" transform="translate(0)"/>
  <path d="M11.15,13.65c-.14.85.45,1.1,1.07,1.29s1.47.1,1.43.78a2.16,2.16,0,0,1-1.07,2,2.91,2.91,0,0,0-1.78,1.7c-.63,1.65-3.57,1.94-4.91.62-.66-.65-.92-.4-1.38.08-.94,1-1.91,1.94-2.88,2.89-.26.25-.54.76-1,.34s0-.71.29-1c1-1,2-2.05,3.05-3.06.39-.37.56-.58,0-1.11-1.35-1.4-1.34-3.95.31-4.85a5.94,5.94,0,0,0,2.16-2.34c.48-.71,1.26-.65,1.86-.68s.51.78.67,1.26c.22.7.31,1.55,1.49,1.17C11.07,12.63,11.31,13.11,11.15,13.65Zm-4.9,2.4c-.23-.71-.34-1.91-1.2-1.85s-1,1.21-.94,2.06c.07.67.27,1.53,1.07,1.49S6.14,16.84,6.25,16.05Zm1.64,1.7c-.7.16-1.6.21-1.64,1.08s.83,1,1.49,1.07c.85.07,2-.12,2.07-.94S8.68,18,7.89,17.75Zm-1.4-4.2c.13.75.21,1.72,1.09,1.77s1.06-.86,1.05-1.6-.33-1.94-1.12-2S6.66,12.82,6.49,13.55Zm3.9,4c.74-.18,1.89-.24,1.89-1.06s-1.09-1-1.9-1.1-1.64.16-1.69,1S9.63,17.33,10.39,17.53Z" transform="translate(0)"/>
</svg>
