<svg xmlns="http://www.w3.org/2000/svg" height="24" viewBox="0 0 24 24">
  <path d="M24,6.81a8,8,0,0,1-3,5.86,10.54,10.54,0,0,1-3.38,2A38.66,38.66,0,0,0,10,18.13a4.58,4.58,0,0,1-1.15.39A2.42,2.42,0,0,0,7,21a2.7,2.7,0,0,1-2,2.87,2.61,2.61,0,0,1-3-1.5A5,5,0,0,0,.82,21a2.53,2.53,0,0,1-.47-3.14,2.52,2.52,0,0,1,2.87-1.34c1.45.25,2.1-.25,2.28-1.76a3.93,3.93,0,0,1,.39-1.29c1.52-3,3-6,4.64-8.95S14.33-.14,17.74,0A6.67,6.67,0,0,1,24,6.81ZM16.16,1.08c-1.59,0-3.38,1.57-4.63,3.84C10.06,7.59,8.71,10.31,7.31,13c-1,1.85-.85,2.48.61,4a1.13,1.13,0,0,0,1.58.23,49.57,49.57,0,0,1,8.14-3.75,8.09,8.09,0,0,0,5-5.09C23.78,4.66,21.19,1.11,16.16,1.08Zm-15,18.09c.06.16.07.56.27.74a9.32,9.32,0,0,1,1.85,2.43,1.31,1.31,0,0,0,1.83.35c.68-.36,1.16-1,.84-1.67-.55-1.12,0-1.72.76-2.28C7.6,18,7,17.5,6.55,17c-.64-.75-1,0-1.27.36a1.25,1.25,0,0,1-1.92.31A1.57,1.57,0,0,0,1.13,19.17Z"/>
</svg>
