<svg xmlns="http://www.w3.org/2000/svg" viewBox="0 0 24 24">
  <path d="M2.65,13.94c-1-2-.74-3.62,1.24-4.82.38-.23.28-.59.28-.92A3.57,3.57,0,0,1,6.44,4.7a1.29,1.29,0,0,0,.91-1.2,3.94,3.94,0,0,1,3-3.38c.3-.1.59-.22.86,0s.15.53.06.84c-.5,1.7-.31,2,1.41,2.37,1.24.26,2.5.39,3.71.74,2.22.63,2.86,1.58,2.75,3.86a.68.68,0,0,0,.38.73c.88.55,1,1.53,1.41,2.34.58,1.07.5,2.55,1.78,3.26.34.18.23.63.2,1A10.76,10.76,0,0,1,18,23.73a2,2,0,0,1-1.25.26c-3.18,0-6.35,0-9.53,0a2.55,2.55,0,0,1-1.67-.59A10.8,10.8,0,0,1,1.12,16C.89,14.28.92,14.21,2.65,13.94ZM12,15.11c-3,0-5.91,0-8.86,0-.73,0-1,.18-.91,1A9.62,9.62,0,0,0,6.4,22.71a1.73,1.73,0,0,0,1.12.23c3,0,6,0,9,0A2.21,2.21,0,0,0,18,22.48a9.83,9.83,0,0,0,3.78-6.18c.16-.9,0-1.23-1-1.21C17.83,15.15,14.92,15.11,12,15.11Zm.44-1h0c2.26,0,4.53,0,6.79,0,.61,0,1.44.24,1.57-.7s-.59-1.12-1.2-1.35a11.38,11.38,0,0,0-5.28-.44A37.4,37.4,0,0,1,9.27,12,5.43,5.43,0,0,1,5,10.37c-.4-.46-.74-.33-1.11,0a2,2,0,0,0-.68,2.22,2,2,0,0,0,2.05,1.48Zm7.33-3.15a2.19,2.19,0,0,0-1.65-1.84,19.06,19.06,0,0,0-5-1c-2-.26-4-.51-5.33-2.29-.33-.44-.68-.26-1-.08A2.53,2.53,0,0,0,5.22,8a2.51,2.51,0,0,0,1.62,2.45,8.26,8.26,0,0,0,4.23.42C14,10.59,16.82,10,19.79,10.91ZM9.8,1.6C7.77,3,7.87,5.16,10,6.16a8.42,8.42,0,0,0,2,.61c1.67.31,3.34.56,5,.83.41.07.89.49,1.19,0a1.31,1.31,0,0,0-.28-1.56,3.72,3.72,0,0,0-2.17-1.12c-1.06-.22-2.14-.35-3.21-.56C10.65,4,10.15,3.5,9.8,1.6Z"/>
</svg>
