<svg xmlns="http://www.w3.org/2000/svg" width="13.68" height="24" viewBox="0 0 13.68 24">
  <path d="M12.29,24c-1.22,0-2.44,0-3.66,0a.89.89,0,0,1-1.05-.88C6.75,17.41,5.2,11.78,5.52,5.92c.05-1,.3-1.32,1.28-1.28,1.48.06,3,0,4.44,0,.76,0,1.2-.25,1.26-1C12.72.94,14.33,0,16.92.13c.22,0,.43-.08.65-.07.39,0,.95-.29,1,.41s-.54.56-.92.61c-.86.12-1.73.21-2.6.29a1.06,1.06,0,0,0-1,.82c-.91,2.47-.93,2.46,1.69,2.46,3.39,0,3.33,0,3.4,3.33.11,4.44-1.08,8.71-1.71,13.05-.44,3-.53,3-3.58,3ZM12.4,9.88c-1.52,0-3,.08-4.56,0-1.21-.09-1.38.44-1.2,1.44q.93,5.4,1.8,10.79a.87.87,0,0,0,1,.87c1.91,0,3.82,0,5.73,0,.55,0,.91-.12,1-.74q.93-5.66,1.87-11.3c.13-.8-.17-1.08-1-1.05C15.53,9.92,14,9.88,12.4,9.88ZM15,8.83h1c2.29-.05,2,.42,2-2.09,0-.78-.19-1.1-1-1.06-1.13.06-2.26,0-3.38,0a.89.89,0,0,0-1,.65c-1,2.5-1,2.49,1.62,2.49ZM9.22,5.7a6,6,0,0,1-1,0C6.87,5.47,6.52,6,6.54,7.29S6.85,9,8.12,8.85a13,13,0,0,1,2.07,0c.51,0,.74-.21.93-.69,1-2.46,1-2.45-1.64-2.45Z" transform="translate(-5.48)"/>
  <path d="M16.48,13a5.14,5.14,0,0,1-2.06,2,4.9,4.9,0,0,1-2-2.08,5.77,5.77,0,0,1,2-2A5,5,0,0,1,16.48,13Zm-1.41,0a.74.74,0,0,0-.56-.65.62.62,0,0,0-.71.6.61.61,0,0,0,.66.64C14.78,13.61,15,13.33,15.07,13Z" transform="translate(-5.48)"/>
  <path d="M15.42,19.75a5,5,0,0,1-2,2.09,5,5,0,0,1-2.06-2.05,5.79,5.79,0,0,1,2-2A4.9,4.9,0,0,1,15.42,19.75ZM14,19.68c-.18-.18-.29-.54-.64-.51a.63.63,0,0,0-.63.68.6.6,0,0,0,.73.56A.74.74,0,0,0,14,19.68Z" transform="translate(-5.48)"/>
  <path d="M10.25,14.62c1.3-.3,1.58.32,1.61,1.55s-.48,1.56-1.67,1.59c-1.35,0-1.52-.55-1.55-1.7S9.05,14.38,10.25,14.62Zm.51,1.52c.06-.33-.13-.48-.49-.49s-.52,0-.53.38,0,.61.42.63S10.75,16.6,10.76,16.14Z" transform="translate(-5.48)"/>
</svg>
