<svg xmlns="http://www.w3.org/2000/svg" viewBox="0 0 24 24">
  <path d="M12.75,21.06c-1.29,0-1.47-.16-1.17-1.68.21-1.06-.06-1.6-1.18-1.9a11,11,0,0,1-4.17-2.29c-.65-.55-1-.64-1.51.18a4.23,4.23,0,0,1-3.49,2c-1.18.06-1.55-.43-.95-1.43A6.09,6.09,0,0,0,.34,9c-.61-1-.19-1.51,1-1.41a4.48,4.48,0,0,1,3.33,2c.44.61.74.62,1.28.15A16.25,16.25,0,0,1,7.76,8.47C9,7.65,9.14,6.57,8,5.59c-.89-.79-.52-1.06.35-1.29,1.7-.44,3.41-.91,5.12-1.31a3.51,3.51,0,0,1,3.69,2.28,4.6,4.6,0,0,0,2.59,2.48,8.56,8.56,0,0,1,3.88,3.83,2.1,2.1,0,0,1-.13,2.47,9,9,0,0,1-5.35,3.54,2,2,0,0,0-1.46,1.16A3.9,3.9,0,0,1,12.75,21.06ZM1.36,16.29a3.75,3.75,0,0,0,2.95-2.11c.68-1.3.7-1.31,1.84-.34a12.42,12.42,0,0,0,12.23,2.68,8.21,8.21,0,0,0,3.8-2.37,1.9,1.9,0,0,0,.2-2.77A10,10,0,0,0,11.25,7.86a14.39,14.39,0,0,0-4.95,3c-.92.82-1.5,1-2.23-.18A4,4,0,0,0,1.54,8.84C2.66,12.61,2.66,12.61,1.36,16.29ZM14.63,6.38,16,6.5c.37,0,.55-.06.46-.48a3.06,3.06,0,0,0-2.88-2c-1.23.26-2.44.58-3.65.93s-.08,1.12-.17,1.69.34.57.81.39A9.21,9.21,0,0,1,14.63,6.38Zm-.2,11.72c-.31,0-.52,0-.73,0s-.84-.21-1,.3-.36,1.05-.07,1.46.86.22,1.29.11a2.08,2.08,0,0,0,.77-.42c.45-.34,1.16-.71,1-1.3S14.8,18.2,14.43,18.1Z"/>
  <path d="M19.58,12c-.12.57-.43,1-1,.95a.91.91,0,0,1-.95-1.07.88.88,0,0,1,1-.86A1,1,0,0,1,19.58,12Z"/>
</svg>
