<svg xmlns="http://www.w3.org/2000/svg" viewBox="0 0 24 23.96">
  <path d="M21.33,20.61c.61.6,1.27,1.15,1.83,1.79.35.4,1.3.76.65,1.4s-1-.29-1.33-.65c-2.35-2.32-4.68-4.66-7-7L.89,1.57C.68,1.35.46,1.14.26.91A.51.51,0,0,1,.21.2C.47-.11.75,0,1,.23s.44.42.66.64c1.6,1.6,3.21,3.18,4.78,4.8A1.1,1.1,0,0,0,7.91,6c1-.46,2.18-.5,2.44-2,.14-.83,1.18-.91,2-.84a1.72,1.72,0,0,1,1.72,1.33c.12.49.12.92.83,1.11,4.09,1.07,6.23,4,7.35,7.89A26.4,26.4,0,0,1,23,18c.05.58-.24,1.39.84,1.39.26,0,.25.3.25.52s-.18.45-.48.45c-.7,0-1.39,0-2.09,0ZM7.69,7.31A8.65,8.65,0,0,1,9.14,8.38c.77.93,1.48,1.3,2.32.09.4-.59.85-.52,1.24,0a2.1,2.1,0,0,0,2.16.87c.68-.1.94.2.88.88s-.1,1.4.59,1.88c.85.58.84,1.16,0,1.8-.38.29-.94.68-.36,1.26,1.28,1.31,2.55,2.62,3.89,3.86a1.74,1.74,0,0,0,1.85.13c.51-.2.21-.86.17-1.3a17.84,17.84,0,0,0-1.47-6.31C18.22,6.82,12.78,4.84,7.69,7.31Zm8,5.7a3.21,3.21,0,0,1-1.14-2.47c0-.06-.31-.14-.46-.13a1.66,1.66,0,0,1-1.59-.65c-.34-.44-.65-.24-1,.08s-.4.52-.06.86c1,.93,1.9,1.89,2.85,2.83.18.19.4.39.66.19A6.76,6.76,0,0,0,15.69,13ZM12.06,5.2c.32-.13.9.25.95-.33s-.47-.73-1-.72-.93.17-.89.7S11.74,5.07,12.06,5.2Z" transform="translate(-0.07 -0.02)"/>
  <path d="M17.93,20.32H8.86c-2.61,0-5.21,0-7.82,0-.33,0-.83.23-.95-.37s.2-.62.66-.7c.62-.11.37-.7.4-1.08a18.44,18.44,0,0,1,2.09-8A9.78,9.78,0,0,1,4.8,8.09c.29-.28.56-.59,1-.16s0,.62-.2.85C3,11.5,2.45,14.89,2.18,18.4c-.06.86.37.89,1,.89,4.3,0,8.6,0,12.9,0A1.66,1.66,0,0,1,17.93,20.32Z" transform="translate(-0.07 -0.02)"/>
  <path d="M14.34,16.37c-.13.17-.16.23-.18.23-1.12-.25-1.35,2-2.5,1.07a3.71,3.71,0,0,0-2.77-1c-.63.05-.47-.52-.45-.86a2,2,0,0,0-.73-2c-.77-.54-.72-1.06,0-1.63.4-.32.84-.66.75-1.32,1.11.72,1.11.73.39,1.67-.15.2-.48.42-.23.65a2.66,2.66,0,0,1,.92,2.17c0,.33.39.25.63.26.39,0,.82-.08,1.09.29.55.74,1,.67,1.64,0S13.79,16.27,14.34,16.37Z" transform="translate(-0.07 -0.02)"/>
</svg>
