<svg xmlns="http://www.w3.org/2000/svg" viewBox="0 0 24 24">
  <path d="M19.18,6.56a7,7,0,0,0,3.08-.32C23.73,6,24,6.17,23.93,7.62c0,.77.46,1.74-.8,2.21a1.26,1.26,0,0,0,.28,1.85c.73.45.8,2.9.12,3.41a1.19,1.19,0,0,0,0,2.1c.59.41.37,1,.37,1.48,0,2.81.31,2.44-2.45,2.44-6.68,0-13.37,0-20,0-1.09,0-1.54-.3-1.4-1.4A14.59,14.59,0,0,0,.05,18a.83.83,0,0,1,.52-.87,1.2,1.2,0,0,0,0-2c-.75-.52-.72-3,0-3.46a1.35,1.35,0,0,0,.08-2A3.94,3.94,0,0,1,.18,6.41a1,1,0,0,1,1.16-.2,12,12,0,0,0,6,0c1.22-.28,2.46.19,3.69.39,1.57.25,1.66.12,1.35-1.37-.15-.71-.51-1.59,0-2.13s1.4-.08,2,.23a2.88,2.88,0,0,0,3.07,0c.57-.31,1.42-.73,2-.24s.2,1.33.08,2A14.31,14.31,0,0,1,19.18,6.56Zm.38,11.12a8.2,8.2,0,0,0,1.86-.29c1-.23.48-1,.5-1.54,0-.72-.54-.41-.91-.34a8.21,8.21,0,0,1-3.69-.19,5.18,5.18,0,0,0-2.59-.09,10,10,0,0,1-4.8.16c-.34-.08-.94-.31-.88.42,0,.53-.44,1.33.56,1.51a8.84,8.84,0,0,0,4.06.1,8.08,8.08,0,0,1,4.31,0C18.5,17.54,19,17.59,19.56,17.68Zm0-5.49a8.89,8.89,0,0,0,1.86-.28c1-.24.48-1,.5-1.54,0-.72-.54-.41-.9-.34A7.49,7.49,0,0,1,17.93,10a6.8,6.8,0,0,0-3.32-.19,9.63,9.63,0,0,1-4.68.15c-.33-.08-.94-.32-.88.41,0,.53-.44,1.34.56,1.51a8.46,8.46,0,0,0,3.94.12,8.57,8.57,0,0,1,4.55,0A14.33,14.33,0,0,0,19.56,12.19ZM16,20.12c2,0,4.05-.05,6.08,0,1,0,.91-.48.94-1.14,0-.89-.46-.82-1-.67a9.72,9.72,0,0,1-5-.11,4.53,4.53,0,0,0-2.34,0,9,9,0,0,1-4.53.15c-.42-.1-1-.36-1,.54,0,.71-.06,1.26,1,1.21C12,20.06,14,20.12,16,20.12Zm3.73-5.43c.85-.14,1.71-.31,2.57-.4s.74-.51.7-1c-.06-.71-.56-.49-.92-.4a10.52,10.52,0,0,1-5.17-.1,4.52,4.52,0,0,0-2.1,0,10.24,10.24,0,0,1-4.92.15c-.32-.08-.8-.23-.81.4,0,.43-.15,1,.54,1.05a9.23,9.23,0,0,0,3.95.12,8.57,8.57,0,0,1,4.55,0C18.59,14.56,19.13,14.61,19.68,14.69ZM12,9.2a7.58,7.58,0,0,0,2-.32,7.07,7.07,0,0,1,3.68,0,10.37,10.37,0,0,0,4.67-.08c.71-.12.73-.53.69-1.06-.06-.71-.56-.49-.92-.4a10,10,0,0,1-5.15-.1,4.29,4.29,0,0,0-2.22,0,9.56,9.56,0,0,1-4.78.16C9.51,7.32,9,7.16,9,7.87c0,.47-.05.92.62,1S11.17,9.08,12,9.2ZM4.51,20.12c1,0,1.9,0,2.85,0s.57-.77.66-1.25c.11-.64-.26-.82-.81-.67a10.41,10.41,0,0,1-5.51.07c-.5-.14-.63.08-.66.56-.05.82,0,1.46,1.11,1.31A18.55,18.55,0,0,1,4.51,20.12Zm-.32-7.93c1.06,0,2-.41,3.07-.47,1.27-.07.72-1,.73-1.56,0-.79-.65-.45-1-.38a11.1,11.1,0,0,1-3.81.3c-.38-.05-1.06-.63-1.09.33,0,.6-.42,1.5.78,1.56A10.39,10.39,0,0,1,4.19,12.19Zm.12,5.48c1,0,2-.42,3-.46,1.17-.06.71-.89.75-1.45.05-.89-.62-.59-1-.5a9,9,0,0,1-4.29.18c-.23-.06-.47-.12-.62.21A1.28,1.28,0,0,0,3,17.47C3.41,17.56,3.86,17.61,4.31,17.67Zm0-8.46c1,0,2-.42,2.95-.48.71,0,.77-.38.74-1,0-.77-.55-.63-1-.51a10.1,10.1,0,0,1-5.15.08c-.32-.08-.8-.33-.83.32,0,.45-.23,1,.56,1.11S3.43,9.07,4.32,9.21Zm0,5.42a28.32,28.32,0,0,0,2.85-.41c.77,0,.87-.41.81-1-.07-.81-.64-.52-1-.42a10.12,10.12,0,0,1-5,.07c-.34-.08-.87-.39-.91.36,0,.49-.14,1,.63,1.07A19.2,19.2,0,0,0,4.36,14.63Zm10-8.3c.38-.36,1.17.25,1.3-.58.1-.61-1.13-1.56-1.95-1.61-.42,0-.54.18-.44.51C13.49,5.3,13.38,6.17,14.39,6.33Zm2.28-1c-.06.71.25,1.14.91,1.06,1-.13.85-1.08,1.06-1.74.12-.38-.14-.57-.48-.46C17.53,4.37,16.74,4.42,16.67,5.3Z"/>
</svg>
