<svg xmlns="http://www.w3.org/2000/svg" viewBox="0 0 24 24">
  <path d="M21.62,15.3a3,3,0,0,0-.73,2c0,.45-.23.63-.67.59s-.4-.4-.38-.7a12.36,12.36,0,0,1,.87-3.43,9.47,9.47,0,0,0-.11-6.45,3.14,3.14,0,0,0-.39-.69c-.06-.1-.18-.15-.36-.29-1.48,2.67-2.7,5.3-1.19,8.34a1.15,1.15,0,0,1-.11,1,2.31,2.31,0,0,0,.83,3,50.49,50.49,0,0,1,3.74,3.72c.36.38,1.32.76.65,1.42s-1-.3-1.34-.66c-3.68-3.65-7.35-7.33-11-11L.87,1.61A6.56,6.56,0,0,1,.15.84a.49.49,0,0,1,0-.71.5.5,0,0,1,.71,0,1.63,1.63,0,0,1,.39.35c1,1.55,2.56,1.74,4.27,1.69,2.37-.07,4.75-.49,7.08-.48,2.56,0,5.07.2,7.2,2.75s2.52,5.25,2.32,8.27c-.07,1.05.55,1.94.63,2.95,0,.52.15,1,.2,1.56,0,.34,0,.62-.46.64s-.54-.15-.58-.53C21.84,16.68,21.72,16,21.62,15.3ZM4.15,3.25c.43.51.63.78.87,1q5.64,5.64,11.29,11.28c.26.26.54.85.9.59a1.2,1.2,0,0,0,.26-1.44A6.47,6.47,0,0,1,17,11.48a11.45,11.45,0,0,1,1.41-4.62,2.17,2.17,0,0,0-.9-3.24,10,10,0,0,0-4.31-.92A69.17,69.17,0,0,1,4.15,3.25Z" transform="translate(0)"/>
  <path d="M11.14,13.58c-1-.2-1.44-.09-1,1,.79,2,.13,3.79-.75,5.56A7.41,7.41,0,0,0,8.59,22c1.79-2.18,3.61-4.35,3.28-7.58A1.27,1.27,0,0,1,13,15.77a5.08,5.08,0,0,1-.44,2.17c-.54,1.35-1.42,2.53-2.06,3.82a2.64,2.64,0,0,1-3,1.45c-.93-.09-1.08-.48-.54-1.18A13,13,0,0,0,9.1,18.17a4.49,4.49,0,0,0,0-3.47c-.15-.31-.31-.78-.72-.62-1.95.77-3.81-.32-5.71-.25-.27,0-.53,0-.79,0-.51,0-1.12,0-1-.64s.7-.42,1.1-.4A16.83,16.83,0,0,1,4.64,13,6.75,6.75,0,0,0,9,12.72,1.44,1.44,0,0,1,11.14,13.58Z" transform="translate(0)"/>
  <path d="M15.54,17.92c1.62,1,.69,2.27.44,3.41-.06.28-.34.61.11.76a.56.56,0,0,0,.81-.42c.05-.21.13-.42.17-.63.06-.43.1-.86.16-1.32,1.32.43.88,1.36.71,2.25s-.64,1.4-1.62,1.23h-.13c-2.31,0-2.31,0-1.3-2A9.12,9.12,0,0,0,15.54,17.92Z" transform="translate(0)"/>
</svg>
