<svg xmlns="http://www.w3.org/2000/svg" viewBox="0 0 23.72 24">
  <path d="M10.25,4.57A4.86,4.86,0,0,0,8.36,1.29C8,1,7.42.8,7.81.27s.87,0,1.25.23A8.61,8.61,0,0,1,11,2.88,5.49,5.49,0,0,1,15.45,0c1.31-.1,1.56.17,1.22,1.44-.2.73-.47,1.45-.73,2.23a5.7,5.7,0,0,0,.7.25A6.13,6.13,0,0,1,21.5,9.1a11.28,11.28,0,0,1-.32,5.32,1,1,0,0,1-.37.69c-.23.15-.49.31-.75.19s-.1-.45,0-.68a11,11,0,0,0,.45-5.18A5.48,5.48,0,0,0,11.55,6c-.57.44-.85.34-1.36,0a5.55,5.55,0,0,0-6-.59,5.2,5.2,0,0,0-3,4.91,12.22,12.22,0,0,0,4.1,9.85c.5.45.94.85.63,1.6-.47.11-.73-.27-1-.51A13.12,13.12,0,0,1,.19,9.77c.38-4.5,4.39-7,8.8-5.65C9.36,4.23,9.72,4.38,10.25,4.57Zm1.56-.17c.73-.19,1.46-.35,2.17-.56,1.09-.31,1.22-1.32,1.49-2.19.13-.43-.17-.49-.56-.46A3.7,3.7,0,0,0,11.81,4.4Z" transform="translate(-0.14 0)"/>
  <path d="M22.76,11a3.94,3.94,0,0,1,1.06,2.85q.08,3.16,0,6.33A3.74,3.74,0,0,1,20,24c-3.9,0-7.81,0-11.71,0-.91,0-1.17-.35-1.15-1.2,0-1.66.06-3.33,0-5,0-1,.28-1.41,1.37-1.39,3.55.06,7.1,0,10.64,0,2.77,0,3.64-.87,3.64-3.61Zm0,5.75a1.7,1.7,0,0,0-1.6,2.18,10.94,10.94,0,0,1,0,1.62c0,.39-.13.75-.59.72s-.47-.36-.47-.7a17,17,0,0,1,0-1.75c.06-.82,0-1.29-1.1-1.3s-1.13.53-1.07,1.32c0,.36,0,.72,0,1.08s-.05.78-.51.8-.55-.46-.56-.87a12,12,0,0,1,0-1.47c.09-1-.58-.8-1.14-.81s-1.1-.09-1,.77,0,1.53,0,2.29c0,.34-.15.64-.53.64s-.51-.31-.52-.65c0-.76,0-1.53,0-2.29s-.52-.79-1-.76-1.09-.25-1.14.68c0,.66.49,1.86-.57,1.86-.89,0-.44-1.18-.46-1.82,0-.9-.6-.71-1.11-.72s-1.11-.18-1.08.72c0,1.3,0,2.6,0,3.9,0,.58.19.78.78.78,3.72,0,7.44,0,11.16,0a2.53,2.53,0,0,0,2.56-2.31C22.81,19.3,22.73,18,22.73,16.7Z" transform="translate(-0.14 0)"/>
</svg>
