<svg xmlns="http://www.w3.org/2000/svg" viewBox="0 0 24 24">
  <path d="M23.93,11.87c0,4.19-1,5.66-4.7,6.67a33,33,0,0,1-15.73.23C.72,18.16,0,17.06,0,14.2V13.05C0,9.81,2.46,7.7,5.59,8.54A6.57,6.57,0,0,0,11.93,7a8.6,8.6,0,0,1,9.56-.49A5,5,0,0,1,23.93,11.87Zm-1.06,1.55c-7.2,3.48-14.44,3.11-21.78,1.12-.18,1.88.42,2.74,2.72,3.24a33.42,33.42,0,0,0,14.76-.1,7.76,7.76,0,0,0,3-1.35A2.91,2.91,0,0,0,22.87,13.42Zm-5.07-7c-1.37,0-1.93.51-1.9,1.8a1.93,1.93,0,0,1-.84,2c-.33.19-.83.28-.62.91a1.21,1.21,0,0,0,1,.94c1.53.33,3,.72,4.55,1.12A1.51,1.51,0,0,0,21.23,13,2.9,2.9,0,0,0,22,8.29,6.31,6.31,0,0,0,17.8,6.38ZM5.46,14.57a5.67,5.67,0,0,0,3-1.69c.54-.58.73-1-.24-1.33a2.94,2.94,0,0,1-1.06-.88,3.86,3.86,0,0,0-5.6-.05,1.7,1.7,0,0,0,.26,2.74A7.82,7.82,0,0,0,5.46,14.57Zm6.68-2.18c.72,1,.75,2.27,1.68,2.34a12.19,12.19,0,0,0,5.12-.8A50,50,0,0,0,12.14,12.39Zm1.22-1A6.48,6.48,0,0,1,12.05,8.3a9.27,9.27,0,0,1-4,1.69C8.87,10.85,11.06,11.4,13.36,11.37ZM7.94,14.79A17.35,17.35,0,0,0,10,15c.72,0,1.81.44,2.08-.27s-.59-1.41-1-2.08-.72-.48-1.08,0A11.4,11.4,0,0,1,7.94,14.79Zm6.94-8c-1.14-.07-1.29.86-1.57,1.62-.18.48-.24,1.14.41,1.22a1,1,0,0,0,1.15-.95C14.92,8,14.88,7.4,14.88,6.75Z"/>
</svg>
