<svg xmlns="http://www.w3.org/2000/svg" viewBox="0 0 23.89 24">
  <path d="M17.32,19.71c-.2,1.85-.2,1.85-2.15,2.25L13,22.39c0-2.15,0-4.21,0-6.27a1.55,1.55,0,0,0-.93-1.68A2.22,2.22,0,0,0,12,15.73c0,1.95,0,2-1.91,1.62-1.1-.21-2.63.07-3.19-.77s-.18-2.2-.18-3.34c0-2.09,0-2.09,2-1.94.05,0,.1-.1.27-.27C7.73,10.24,6.39,9.57,6,8l-.35.24c0,4.43,0,8.86,0,13.29,0,.73.31,1,1,1.13,3.45.59,6.9,1.34,10.37.07.5-.18,1.24,0,1.31-.82S18.44,20.09,17.32,19.71Zm-7.13,2.42c-.34-.05-.69-.13-1-.19-2.69-.46-2.83-.68-2.5-3.42.07-.57.3-.64.76-.56.9.17,1.81.33,2.72.48,1.81.28,1.81.28,1.81,2.15S12,22.4,10.19,22.13Z" transform="translate(-0.06)"/>
  <path d="M19,18h0L19,18Z" transform="translate(-0.06)"/>
  <path d="M23.84,23.36l-5.67-5.83V7h0a5.4,5.4,0,0,0-1.79-2.72A2.42,2.42,0,0,1,15.64,2c.08-.69-.19-1.08-.92-1.13l-5-.42c-.56,0-1.05.09-.93.74C9.13,2.87,7.88,3.76,7,4.88c-.46.59-.77.64-1.31.07C4.29,3.46,2.81,2,1.34.57,1.05.29.74-.28.27.16S.35,1,.63,1.34a2.47,2.47,0,0,0,.28.28Q11.67,12.39,22.43,23.14c.21.22.43.44.66.64s.5.32.76.1h0A.36.36,0,0,0,23.84,23.36ZM15.18,4.42l1.5,1.82a4.29,4.29,0,0,1-.68.27c-.67.14-1.36.26-2.39.44ZM10.74,1.56a4.89,4.89,0,0,1,.7,0c.74.07,1.65.18,2.56.24.46,0,.61.25.58.68s-.39.39-.68.37c-1.09-.08-2.18-.18-3.27-.28-.4,0-.82,0-.78-.62S10.4,1.6,10.74,1.56Zm1,9.67c-.64-.73-1.08-1.29-1.58-1.8S9.12,8.44,8.57,8C12.19,8.14,12.19,8.14,11.78,11.23Zm-.2-4.16L7.46,6.34C8.71,2.76,11.42,3.65,14,4a16.36,16.36,0,0,1-1.54,2.71A.75.75,0,0,1,11.58,7.07Zm5.65,9-.28.17-1-1a.51.51,0,0,0-.16-.09c-.86-.91-1.73-1.82-2.59-2.74a11.72,11.72,0,0,1-.14-4.12,3.18,3.18,0,0,1,1.48-.43c2.66-.53,2.66-.53,2.66,2.21Z" transform="translate(-0.06)"/>
</svg>
