<svg xmlns="http://www.w3.org/2000/svg" viewBox="0 0 23.76 23.79">
  <path d="M23.17,23.89c-2.73-2.75-5.45-5.51-8.19-8.25q-7-7-14-14A7.66,7.66,0,0,1,.23.82a.4.4,0,0,1,0-.54A.42.42,0,0,1,.85.22a7.18,7.18,0,0,1,.7.65L8.61,7.92c1.3,1.31,1.32,1.33,2.77.13a7.81,7.81,0,0,1,7-1.58c3.1.7,4.48,2.48,4.48,5.63,0,.44,0,.87,0,1.31a4.2,4.2,0,0,1-2.78,4.5c-.94.41-.89.7-.2,1.35,1.36,1.26,2.64,2.61,4,3.92v.48c-.23-.07-.34.1-.48.23ZM17.34,7.65c0-.48-.34-.43-.64-.44A6.47,6.47,0,0,0,13.05,8c-2.76,1.58-2.76,1.61-.53,3.79.17.17.34.34.52.49s.38.16.47-.08c.53-1.49,1.94-2.14,3-3.17A3,3,0,0,0,17.34,7.65ZM16,14.84a10.25,10.25,0,0,0,5-1.9c.47-.4,1.12-1,.78-1.55s-1.09-.15-1.63,0a4.94,4.94,0,0,1-4.23.06c-.21-.1-.44-.2-.66,0a1.8,1.8,0,0,0-.76,2A1.87,1.87,0,0,0,16,14.84ZM17.62,11a6.54,6.54,0,0,0,2.53-.64c.49-.18,1.35.15,1.43-.45S21,8.79,20.42,8.4a11.59,11.59,0,0,0-1.34-.73c-.36-.19-.68-.21-.82.28a4.54,4.54,0,0,1-1.54,2.19c-.52.44-.24.64.24.76C17.22,11,17.5,11,17.62,11Zm4.21,2.44c-1.57,1.39-3.38,1.83-5.44,2.37,1,.59,1.23,1.68,2.22,1.67C20.39,17.48,22,15.49,21.83,13.46Z" transform="translate(-0.12 -0.11)"/>
  <path d="M10.2,12.47a11.56,11.56,0,0,0-5.95,2,27.71,27.71,0,0,0,8,.76c.9,0,.9,0,1.61.83-4.25.3-8.28.24-12.16-1.37-.35,1.68.07,2.48,1.89,3a26.52,26.52,0,0,0,8.83.84c1-.06,2-.18,3-.3.55-.06,1.21-.08,1.26.52s-.65.36-1,.42A34.75,34.75,0,0,1,5,19.05a9.07,9.07,0,0,1-2.39-.68A3,3,0,0,1,.55,15.14c0-.59,0-1.19,0-1.78A4,4,0,0,1,5.64,9.19c.88.16,2,0,2.55,1.14A3,3,0,0,1,6,10.2a4.44,4.44,0,0,0-3.33.45,2.33,2.33,0,0,0-1.09,1.22,1.51,1.51,0,0,0,.49,1.71c.49.48.91.23,1.39,0a16.18,16.18,0,0,1,5.22-1.88C9.35,11.58,9.89,11.6,10.2,12.47Z" transform="translate(-0.12 -0.11)"/>
</svg>
