<svg xmlns="http://www.w3.org/2000/svg" viewBox="0 0 24 24">
	<path d="M23.8,23.2c-0.3-0.3-0.6-0.7-0.9-0.9c-0.6-0.5-0.8-0.9-0.2-1.8c1.9-2.7,0.8-5.4-2.4-6.3c-1.3-0.4-2.6-0.7-3.8-1
	c-0.8-0.2-0.9-0.6-0.5-1.3c0.9-1.8,1.4-3.7,1.3-5.7c-0.1-1.9-0.7-3.5-2.3-4.7c-2.1-1.7-4.3-1.3-5.8,0.9c-0.6,1-1.2,2-1.7,3
	C7.2,6.2,6.9,6.3,6.3,5.7C4.4,3.8,2.5,1.9,0.6,0C0.4,0,0.3,0,0.1,0c-0.3,0.7,0.2,1.1,0.6,1.5C8,8.7,15.3,16,22.5,23.2
	c0.2,0.2,0.5,0.5,0.7,0.7c0.2,0.2,0.4,0.2,0.6,0C24.1,23.6,24,23.4,23.8,23.2z M13.5,12.9c-0.1-0.1-0.1-0.1-0.2-0.2
	c-0.7-0.7-1.6-1.3-1.9-2.1c-0.3-0.8,0.7-1.6,1-2.4c0.4-1.1,0.8-2.2,1.1-3.4C13.6,4.4,13.7,4,13.2,4c-0.4-0.1-0.5,0.3-0.6,0.6
	c-0.3,1.5-0.8,3-1.6,4.4c-0.3,0.6-0.6,0.8-1.2,0.2C7.7,7.3,7.7,7.3,9.1,4.8c0.3-0.6,0.6-1.2,1-1.8c1.1-1.8,2.7-2,4.4-0.7
	c1.5,1.2,1.9,2.8,1.9,4.5c0,2.3-0.8,4.2-1.9,6C14.2,13.2,13.9,13.3,13.5,12.9z M21.2,20.4c-0.5-0.2-1.4-0.6-0.9-1.6
	c0.2-0.5-0.2-0.7-0.6-0.6c-0.9,0.1-1.3-0.4-1.8-0.9c-0.9-0.9-1.8-1.7-2.6-2.6c-0.2-0.2-0.5-0.4-0.3-0.7c0.2-0.3,0.5-0.1,0.7,0
	c1.6,0.7,3.3,0.8,5,1.4c1.4,0.5,2,1.2,1.9,2.5c0,0.5-0.1,1.1-0.3,1.5C22,19.8,21.9,20.7,21.2,20.4z"/>
	<path d="M12.4,16.6c1.3,1.2,3.3,0.7,4.6,2.4c-1.8-0.1-3.3-0.5-4.7-1.2c-0.8-0.4-1.4-0.4-2.1,0c-0.7,0.4-1.6,0.6-2.4,0.7
	c-0.6,0.1-0.6,0.4-0.3,0.8c0.5,0.6,1.1,1.2,1.8,1.5c3.1,1.6,6.3,2.3,9.8,1.2c0.4-0.1,0.9-0.4,1.1,0.1c0.2,0.6-0.5,0.6-0.8,0.8
	c-4,1.5-10.1,0-12.8-3.3c-0.5-0.6-1-1-1.9-1c-2-0.1-3.3-1.2-3.9-3c-0.8-2.1-0.4-3.9,1-5.6c1-1.2,2.4-1.6,3.7-2.2
	c0.3-0.2,0.6,0.1,0.7,0.3c0.1,0.3-0.1,0.4-0.3,0.5C5.3,9,4.8,9.2,4.2,9.5c-2.3,1-3.4,3.6-2.6,5.8C1.9,16,2.2,16.2,3,15.8
	c2.1-1,4.1-2.2,5.8-3.9c0.3-0.3,0.5-0.8,1-0.3c0.4,0.5-0.1,0.7-0.3,1c-1.6,1.7-3.6,2.9-5.6,3.9c-0.3,0.1-0.7,0.1-0.7,0.5
	c0,0.3,0.4,0.4,0.8,0.5C6,18.1,8,17.6,9.9,16.8c0.9-0.3,1.6-0.8,2.4-1.4c0.3-0.2,0.6-0.7,1-0.2c0.4,0.5-0.1,0.7-0.4,0.9
	C12.8,16.3,12.6,16.4,12.4,16.6z"/>
</svg>
