<svg xmlns="http://www.w3.org/2000/svg" viewBox="0 0 21.69 22.54">
  <path d="M21.4,10a12.23,12.23,0,0,1-2.2,6.45A1,1,0,0,0,19.38,18c1.18,1.11,2.29,2.29,3.41,3.46.25.26.77.55.38,1s-.77-.05-1.05-.33Q14.47,14.39,6.83,6.67,4.49,4.31,2.18,1.93c-.28-.29-.85-.6-.38-1s.77.14,1.06.42c.87.86,1.77,1.7,2.57,2.63.64.73,1,.87,1.84.08a6.9,6.9,0,0,1,7.64-1.74C18,3.41,20.52,5.2,21.25,8.7A12.23,12.23,0,0,1,21.4,10Zm-8.72,1.46,4.84,4.67c.23.22.45.5.73.06,1.43-2.24,2.61-4.61,2-7.35-.73-3.46-3.39-5-6.5-5.86-2.53-.7-4.55.37-6.3,2.13-.18.18-.48.39-.18.68A14.37,14.37,0,0,0,9.85,8.13c-.3-.51-.45-.74-.57-1s-.78-.7-.18-1.07.72.28,1,.62a22.38,22.38,0,0,1,1.42,3.2A21.22,21.22,0,0,0,13,6.29c.14-.39.11-1.16.8-.9s.21.82.06,1.23c-.42,1.22-.87,2.43-1.36,3.79a13.87,13.87,0,0,1,5-1c.38,0,.93-.11,1,.42s-.57.51-1,.52A12,12,0,0,0,12.68,11.43Z" transform="translate(-1.62 -0.73)"/>
  <path d="M9.91,20.77a6.44,6.44,0,0,0-4.62,1.49c-.32.23-.64.46-1,.66a1.46,1.46,0,0,1-2-.05c-.58-.59-.37-1.24.06-1.83a6,6,0,0,0,.79-5.5,10.52,10.52,0,0,1,1.7-8.7c.15-.24.24-.78.76-.4s.25.6,0,.92a10.71,10.71,0,0,0-1.77,4.86,7.25,7.25,0,0,0,.25,3.4,6,6,0,0,1-.77,5.64c-.17.26-.63.58-.3.9s.72-.08,1-.28c.54-.33,1.05-.7,1.59-1A7,7,0,0,1,9.8,19.8a10.1,10.1,0,0,0,6.53-1.7c.35-.25.61-.34.89,0s-.11.56-.33.71A11.25,11.25,0,0,1,9.91,20.77Z" transform="translate(-1.62 -0.73)"/>
  <path d="M14.93,16.07a34.76,34.76,0,0,0-4.22.05,4.28,4.28,0,0,0-3.46,2,7.21,7.21,0,0,1-.91,1.09.47.47,0,0,1-.73.07c-.21-.2-.13-.43,0-.64s.21-.24.29-.37c.51-.83,1.59-1.33,1.59-2.42A8.94,8.94,0,0,0,6.42,11.6c-.23-.43-1-1-.37-1.37s.88.54,1.15,1A12.66,12.66,0,0,1,8.43,15a15.8,15.8,0,0,0,1.89-2.85c.14-.22.2-.71.67-.36s.39.49.13.88c-.54.82-1,1.68-1.56,2.63,1.67-.08,3.23-.52,4.78-.05A.89.89,0,0,1,14.93,16.07Z" transform="translate(-1.62 -0.73)"/>
</svg>
