<svg xmlns="http://www.w3.org/2000/svg" viewBox="0 0 23.77 23.81">
  <path d="M21.62.24a15.5,15.5,0,0,1,1.91,1.89c.73.68.28,1.75-.19,2.53A12.54,12.54,0,0,1,19.2,8.84c-.73.47-1.54.8-2.3,1.21-.26.14-.73.1-.72.49s.39.48.65.64a4.47,4.47,0,0,0,2.58.75c.4,0,.89-.06.85.53s-.49.41-.83.42a5.61,5.61,0,0,1-3.72-1.33,6.53,6.53,0,0,1-.62-.56c-.52-.5-1.11-.2-1.54,0s-.07.79.1,1.12a4.75,4.75,0,0,0,3.85,2.63c.31,0,.63.05.94.11a.43.43,0,0,1,.34.54.39.39,0,0,1-.43.32c-.59,0-1.18-.05-2.06-.1,1,1,1.66,2.28,2.56,2.43,1.58.26,1.87,1,2.29,2.31.31,1,1.54,1.64,2.33,2.47.28.28.83.59.33,1.05s-.71-.1-1-.37c-2.44-2.42-4.87-4.86-7.3-7.29L.24,1V.48L.48.24H1C2.36,1.67,3.8,3.08,5.18,4.55c.53.57.9.71,1.51.1A13.26,13.26,0,0,1,15.13.58,7.8,7.8,0,0,0,17.58.24ZM9.76,9.15l0-.07-.07.06C9.2,7.72,8.14,6.58,7.84,5.05c-1.13.53-1.26,1-.4,1.77S9,8.37,9.76,9.15Zm9.33-7.91v0c-1.22.1-2.45.15-3.66.31A13.06,13.06,0,0,0,9.92,3.19C8.7,4,8.53,4.45,9.06,5.75a10.5,10.5,0,0,0,2.56,3.66,2.17,2.17,0,0,0,2,.57,12.88,12.88,0,0,0,8.59-5.21,3.93,3.93,0,0,0,.61-1.27c.15-.5.17-1-.65-.71-.5.17-1,0-.73-.6.37-.91-.18-.92-.77-.95S19.61,1.24,19.09,1.24Zm-7.38,9.44-.19.1a2.81,2.81,0,0,0,.31.29s.09-.06.14-.1Z" transform="translate(-0.24 -0.24)"/>
  <path d="M6.14,18.81a6.48,6.48,0,0,0,2.05,2.34.8.8,0,0,0,1.07,0c.34-.21.7-.77,1.11-.34s-.28.76-.45,1.15c2.18,1.5,7,1.49,9.22-.06.3-.21.46-.26.68,0a.48.48,0,0,1,0,.73,3.81,3.81,0,0,1-2.09,1.06c-4.31.79-8.47.45-11.44-3.12s-3.64-8-2-12.62c.12-.35.12-1.13.81-.84s.24.79,0,1.21a8,8,0,0,0-.61,2c-.27,1.74,0,2.17,1.72,2.57.39.09.79.11,1.18.16s.92-.08.91.48-.62.44-1,.45a10.94,10.94,0,0,1-2.73-.55,7.61,7.61,0,0,0,.78,3.82c.33.74,1.14.56,1.8.46A3.45,3.45,0,0,0,8,17.39a.49.49,0,0,1,.64.1c.22.3,0,.53-.2.7A3.6,3.6,0,0,1,6.14,18.81Z" transform="translate(-0.24 -0.24)"/>
  <path d="M9.24,16.53a5.07,5.07,0,0,1,.7-3c.17-.29.24-.9.78-.67s.27.69.06,1.09a4.9,4.9,0,0,0,0,4.67A3.78,3.78,0,0,0,16,20.78a7.08,7.08,0,0,0,1.17-.58c.32-.18.63-.41.92,0s-.16.61-.41.79c-3.61,2.56-8,.47-8.42-4C9.24,16.72,9.24,16.48,9.24,16.53Z" transform="translate(-0.24 -0.24)"/>
  <path d="M19.13,2.75a.63.63,0,0,1,.63.7.57.57,0,0,1-.58.62.6.6,0,0,1-.7-.62C18.47,3,18.72,2.81,19.13,2.75Z" transform="translate(-0.24 -0.24)"/>
</svg>
