<svg xmlns="http://www.w3.org/2000/svg" viewBox="0 0 24 24">
  <path d="M23.21,22.38a3.24,3.24,0,0,1-2.39-1.28A4.4,4.4,0,0,1,20,19.49c-.48-2.74-2.18-4.63-4.11-6.45C13.44,10.75,11.12,8.33,8.78,6c-.3-.31-1-.66-.46-1.16s.85.2,1.16.51c3.15,3.13,6.27,6.28,9.42,9.42a5,5,0,0,1,1.27,2.19c.23.78.45,1.57.73,2.33a2.82,2.82,0,0,0,2.38,2.17c.32,0,.72.07.67.52S23.46,22.38,23.21,22.38Z"/>
  <path d="M.67,21.34a.53.53,0,0,1-.6-.28c-.2-.34.07-.53.27-.72C1.17,19.56,2,18.76,2.85,18a1.91,1.91,0,0,0,.68-2c-.12-.65-.21-1.29-.28-1.94A6,6,0,0,1,5,9.09c.76-.79,1.56-1.54,2.35-2.31.26-.26.53-.58.9-.15s0,.59-.19.83L5.86,9.59a4.81,4.81,0,0,0-1.57,4.88,4.58,4.58,0,0,1-2,5.39A18.7,18.7,0,0,0,.67,21.34Z"/>
  <path d="M10.55,20.81a2.72,2.72,0,0,1-.68,0c-2.55-1-4.24.25-5.63,2.24a7.38,7.38,0,0,1-.65.73c-.2.23-.42.39-.72.15s-.22-.56,0-.82c1-1,1.92-2.11,2.92-3.12a2.2,2.2,0,0,1,2-.46c.8.1,1.6.26,2.41.33a5,5,0,0,0,4.15-1.67c.74-.76,1.46-1.53,2.2-2.29.22-.23.45-.35.73-.09a.41.41,0,0,1,.05.64c-1.62,1.7-3,3.72-5.49,4.26A9,9,0,0,1,10.55,20.81Z"/>
  <path d="M23.11,11c0,.49-.24.72-.64.53a2.53,2.53,0,0,1-.65-.54C18.87,8,15.91,5.06,13,2.09c-.28-.29-.9-.61-.48-1.07s.86.08,1.18.39c3,3,5.91,5.92,8.86,8.88C22.75,10.52,22.94,10.78,23.11,11Z" transform="translate(0 0)"/>
  <path d="M11.17,2a1.26,1.26,0,0,1,.87.53Q16.8,7.23,21.52,12c.27.27.76.59.37,1s-.79-.07-1.08-.36q-4.75-4.73-9.48-9.49c-.25-.25-.62-.48-.45-.92C10.93,2.1,11.1,2,11.17,2Z" transform="translate(0 0)"/>
  <path d="M9.79,3.34a1.19,1.19,0,0,1,.89.5q4.73,4.74,9.45,9.48c.28.28.73.62.36,1s-.79-.08-1.08-.37Q14.67,9.25,10,4.49C9.7,4.24,9.34,4,9.5,3.58,9.55,3.46,9.73,3.39,9.79,3.34Z" transform="translate(0 0)"/>
  <path d="M21,5.43c0,.45-.45.69-.76,1a.39.39,0,0,1-.54,0c-.36-.26-.17-.51-.07-.84.16-.52-.72-1.43-1.22-1.28s-.64.37-.92-.08a.39.39,0,0,1,.08-.54c.32-.29.53-.75,1.06-.72A7.35,7.35,0,0,1,21,5.43Z" transform="translate(0 0)"/>
  <path d="M13.75,15.1a1.42,1.42,0,0,1-1.25-1A1.57,1.57,0,0,1,13,12.32c.21-.2.43-.39.73-.12a.45.45,0,0,1,0,.73c-.25.28-.55.58-.23,1s.66.14.94-.12.55-.33.81,0,0,.59-.25.81A1.63,1.63,0,0,1,13.75,15.1Z" transform="translate(0 0)"/>
  <path d="M10.37,11.51a1.42,1.42,0,0,1-1.32-.94A1.52,1.52,0,0,1,9.5,8.81c.2-.21.42-.4.72-.15a.45.45,0,0,1,.07.73c-.24.27-.54.58-.19.94s.67.1,1-.15a.45.45,0,0,1,.73.05c.26.29.08.51-.13.72A1.69,1.69,0,0,1,10.37,11.51Z" transform="translate(0 0)"/>
  <path d="M23.24,9.93c-.39-.11-.48-.33-.52-.71-.09-.7-.17-1.52-1.28-1.21a.45.45,0,0,1-.54-.39c-.09-.43.33-.61.57-.86a.55.55,0,0,1,.86-.07,13.11,13.11,0,0,1,1.57,2C24.23,9.29,23.69,9.64,23.24,9.93Z" transform="translate(0 0)"/>
  <path d="M17.39,2.09c-.19.42-.48.93-1,1-.4,0-.42-.36-.39-.8.07-.72-.52-1-1.16-1-.39,0-.69-.08-.72-.44s.35-.63.67-.76C15.25-.19,17.4,1.46,17.39,2.09Z" transform="translate(0 0)"/>
</svg>
