<svg xmlns="http://www.w3.org/2000/svg" viewBox="0 0 24 24">
  <path d="M24,12.68c0,1,0,2,0,3-.22,4.81-4.44,7.48-8.9,5.65a21,21,0,0,1-3.46-2,8.09,8.09,0,0,0-8.11-.86c-2.2.94-3.39.06-3.4-2.34a9.24,9.24,0,0,0,0-1.29C-.42,11.2,1.28,8.66,3.89,6.5,6.92,4,10.25,2.21,14.3,2.11a10.78,10.78,0,0,1,5.47,1.35,7.21,7.21,0,0,1,4.22,7c0,.74,0,1.47,0,2.21ZM3.19,8.75c.42.2,1.09.06,1,.71s-.66.42-1.07.44a3.22,3.22,0,0,0-.77,0,1.46,1.46,0,0,0-.85,1.21c-.06.28.26.25.46.31.58.17,1.71-.45,1.65.57-.05.85-1.16.4-1.79.44s-.72.36-.54.84c.36,1,1.11.83,1.84.61,1.49-.43,2.9-1.15,4.53-.88a10.9,10.9,0,0,1,4.17,1.71A19,19,0,0,0,15.58,17a4.46,4.46,0,0,0,6-2.94h-.79c-.4,0-.85,0-.82-.57s.44-.45.79-.46.69,0,1,0c.76,0,.77-.61.87-1.07.14-.71-.47-.43-.78-.48S21,11.49,21,11s.48-.57.85-.51c1.25.18,1.23-.57,1.08-1.42-.52-2.92-2.57-4.4-5.14-5.3C13.14,2.11,6.77,4.31,3.19,8.75Zm19.66,5.84c-.25.3-.36.42-.46.55-2.61,3.65-5.46,4.19-9.25,1.77-1-.63-1.93-1.31-3-1.89a6,6,0,0,0-5.59-.49,4.43,4.43,0,0,1-3,.48c-.27-.07-.44,0-.42.29,0,.71-.29,1.51.25,2.12s1.22.26,1.81,0A8.85,8.85,0,0,1,12,18.3a31.15,31.15,0,0,0,3.22,1.93C19.42,22.18,23.23,19.48,22.85,14.59Z"/>
</svg>
