<svg xmlns="http://www.w3.org/2000/svg" width="22.81" height="17.98" viewBox="0 0 22.81 17.98">
  <title>Untitled-1</title>
  <path d="M11.89,21.17c-1.42,0-2.85,0-4.27,0a4.7,4.7,0,0,1-3.91-1.86A13.67,13.67,0,0,1,.59,12.25c-.1-.78-.28-1.63.76-2,.45-.15.17-.44.12-.67C1.34,9.05,1.18,8.52,1.06,8s0-1.12.82-1a.84.84,0,0,0,1-.61.37.37,0,0,1,.05-.11C4.15,5,5.8,4.52,7.24,3.66c.44-.27,1.09.06,1.53.42a2,2,0,0,0,2.71,0c1.39-.84,3.14-.39,4.65-.93a.47.47,0,0,1,.42.18c.69,1.26,2.35,1.17,3.16,2.29.42.59,1.17.33,1.76.47,1.4.32,1.52.43,1.29,1.81a12.73,12.73,0,0,1-.31,1.39c-.13.48-.26.86.39,1.12s.51.75.47,1.25a13.18,13.18,0,0,1-4.14,8.56,3.77,3.77,0,0,1-2.65.88c-1.54,0-3.08,0-4.63,0Zm.1-6.64c-2.25,0-4.5,0-6.76,0-1,0-2.58-.46-2.85.24-.36,1,.76,2,1.36,3a4.79,4.79,0,0,0,4.73,2.48,39.9,39.9,0,0,1,6.28,0c2.93.29,4.71-1.08,6-3.48.21-.39.39-.78.6-1.16.45-.79.4-1.15-.68-1.13C17.77,14.58,14.88,14.53,12,14.53Zm0-3.32c-3.13,0-6.25,0-9.37,0-.43,0-1.22-.29-1,.62.13.68-.3,1.79,1.12,1.76,1.81,0,3.63,0,5.45,0,4.35,0,8.7,0,13.05,0,1.41,0,1-1,1.16-1.72.19-1-.67-.65-1.11-.66C18.11,11.19,15,11.21,12,11.21Zm-.53-4.34c-.21-1-.77-1.51-1.69-1.28a1.06,1.06,0,0,1-1.27-.5C8.11,4.64,7.37,4.27,7,4.71a5.25,5.25,0,0,1-2.9,1.64.77.77,0,0,0-.45.73c1.24.44,2.6.67,3.59,1.67.23.23.4.14.56-.1A4.24,4.24,0,0,1,11.42,6.87Zm7.2,3.26c2.92.3,2.62.33,3.17-2.13a2,2,0,0,0,0-.24.53.53,0,0,0-.39-.62c-1.93-.87-5.53.4-6.45,2.3-.13.28-.49.76.15.78.92,0,2,.43,2.63-.73A2.56,2.56,0,0,1,19,8.57c.33-.16.69-.35.92.09s-.15.55-.41.72A1.85,1.85,0,0,0,18.62,10.13Zm-.11-4.25c-1-.29-1.83-.54-2.29-1.56C16,3.88,15.31,4,15,4.43a.9.9,0,0,1-1.38.31,1.33,1.33,0,0,0-1.65.2c-.47.46.2.75.25,1.14,0,.19.13.37.16.57.13,1.06,1.32,1.14,1.77,1.92.09.15.28,0,.37-.15A8.13,8.13,0,0,1,18.51,5.88Zm-7.67,4.38c.67,0,1.34,0,2,0,.91,0,.89-.36.52-1a2.84,2.84,0,0,0-4.84,0c-.35.6-.44,1,.51,1C9.65,10.23,10.24,10.26,10.84,10.26ZM7,10.16A5.58,5.58,0,0,0,2.52,8a.4.4,0,0,0-.35.25,1.62,1.62,0,0,0,1.59,1.9c0-.4-.72-.71-.19-1.12s.81.15,1,.44A2.08,2.08,0,0,0,7,10.16Z" transform="translate(-0.51 -3.19)"/>
</svg>
