<svg xmlns="http://www.w3.org/2000/svg" width="24" height="24" viewBox="0 0 24 24">
  <title>Untitled-1</title>
  <g>
    <path d="M12.94,4.19a7.3,7.3,0,0,0-.94.06,1.66,1.66,0,0,0-.49.14,2,2,0,0,0-.2,3.45,1.67,1.67,0,0,0,1,0A2.21,2.21,0,0,0,14,5.37,1.41,1.41,0,0,0,12.94,4.19Zm-.06,1.66a1.08,1.08,0,0,1-1,.93.5.5,0,0,1-.59-.67,1,1,0,0,1,1-.9C12.73,5.2,12.9,5.42,12.88,5.85Z"/>
    <path d="M20.71,1.51a12.92,12.92,0,0,0-2.95,2.36s-.61-.75-3.21-1.27c-3.67-.66-6.25,1.68-6,5.53a5.83,5.83,0,0,0,1,3c.49.69.16,1-.31,1.45-.62.57-.86-.09-1.16-.39-.88-.88-1.73-1.81-2.59-2.72-.24-.26-.47-.59-.85-.6-.6,0-3.15,3.81-2.92,4.36a6,6,0,0,0,.42.69c.57.85,1.1,1.74,1.72,2.56.5.66.53,1.16-.16,1.68C1.87,19.63,1,21.76,0,24a12.76,12.76,0,0,0,5.43-3.27c.62-.62.94-.63,1.37.15s1,1.5,1.47,2.24c.2.29.36.65.81.57.64-.1,2-2,1.81-2.65-.25-.91.1-1.43,1-1.14,1.08.36,1.34-.5,1.78-1s-.16-.95-.49-1.33a12,12,0,0,0-1.39-1.46c-.86-.67-.6-1.14.06-1.79s1-.18,1.56,0A5.28,5.28,0,0,0,19,13.2a5.1,5.1,0,0,0,1.2-5.59,1.78,1.78,0,0,1,.6-2.28C22.54,4,23.14,1.91,24,0A33,33,0,0,0,20.71,1.51ZM5.29,19.37c-.87.77-1.49,1.86-2.9,2.29.46-1.41,1.51-2,2.26-2.88.17-.19.39-.42.65-.11A.45.45,0,0,1,5.29,19.37Zm7.43-.69c-2.47.06-2.78.36-2.86,2.5a1,1,0,0,1-.68.91c-.39.16-.48-.29-.64-.53-1.76-2.64-3.47-5.31-5.27-7.91-.54-.78-.14-1.21.25-1.75,1.22-1.71,1.22-1.71,2.62-.22Zm-2.46-4.43c-.27.08-.56-.28-.46-.49a1.39,1.39,0,0,1,1-.91c.19,0,.38.18.42.45A1.86,1.86,0,0,1,10.26,14.25Zm9.06-3.76a3.63,3.63,0,0,1-1.72,2.45,5.22,5.22,0,0,1-6.15-1.07A5.84,5.84,0,0,1,9.71,8.52a1,1,0,0,1,0-.25c-.14-1.69,0-3.34,1.27-4.24a2,2,0,0,1,.72-.32,5.62,5.62,0,0,1,1-.08A5.92,5.92,0,0,1,19.32,10.49Zm.23-5.41a.35.35,0,0,1-.57,0c-.18-.19-.24-.41-.05-.59.81-.77,1.45-1.79,2.8-2.22C21.34,3.64,20.29,4.25,19.55,5.08Z"/>
  </g>
</svg>
