<svg xmlns="http://www.w3.org/2000/svg" viewBox="0 0 24 24">
  <path d="M13.55,13.3l7.37-2.88c.29-.12.59-.25.89-.35a1.48,1.48,0,0,1,2.06.88,1.44,1.44,0,0,1-1,2c-.77.32-1.57.57-2.37.85-2.07.72-4.14,1.47-6.23,2.16-.62.2-.92.48-.85,1.18a2.89,2.89,0,0,1-1.93,3,8.47,8.47,0,0,1-7.21.17,2.53,2.53,0,0,0-2.36-.05,2.72,2.72,0,0,1-.34.11c-.64.21-1.23.15-1.5-.55s.15-1.13.73-1.44,1.2-.3,1.1-1.17c0-.48,0-.89-.7-.76A.94.94,0,0,1,.07,15.8a1.09,1.09,0,0,1,.64-1.4c1.14-.47,1.23-1.33,1.2-2.4-.06-2.34.68-3.3,2.93-4a8.84,8.84,0,0,1,5.77.07,1.68,1.68,0,0,0,1.57-.15c2.39-1.38,4.79-2.74,7.19-4.1l.84-.47c1.2-.63,2.09-.48,2.6.44S23,5.55,21.75,6.17L15.34,9.43C13.11,10.56,13.08,10.61,13.55,13.3Zm-12,6.13,20.11-7.07a6.9,6.9,0,0,0,.9-.33c.3-.15.54-.38.36-.76a.58.58,0,0,0-.81-.29c-.19.07-.38.13-.56.21Q11.9,15,2.28,18.83c-.3.11-.78.08-.72.61l-.19-.12,0,.11Zm1.31-5.6c0,.88,0,1.77,0,2.64s.13,1.06,1,.71c2.4-1,4.8-2,7.25-2.84,1.16-.4,1.39-1,1.42-2.16A2.87,2.87,0,0,0,10.4,9a8,8,0,0,0-6,.17,2.28,2.28,0,0,0-1.6,2.51C2.91,12.39,2.86,13.12,2.86,13.83Zm1.75,5.51a7.65,7.65,0,0,0,6.81-.25,2,2,0,0,0,.92-2.44ZM22.06,4.44c-.26-.69-.74-.6-1.3-.29C18.19,5.61,15.62,7,13.05,8.5c-.23.13-.7.19-.46.66s.48.33.82.15l8.2-4.17A.69.69,0,0,0,22.06,4.44ZM.93,15.41a3,3,0,0,0,.59-.05,2.51,2.51,0,0,0,.32-.25L1.74,15Z"/>
  <path d="M7.7,13.31a6,6,0,0,1-3.56-1c-1-.73-1-1.55-.08-2.33,1.7-1.38,5.57-1.35,7.22.06.9.77.89,1.55-.1,2.25A5.87,5.87,0,0,1,7.7,13.31Zm-.09-1a5.47,5.47,0,0,0,2.77-.62c.61-.32.77-.64.07-1.09a6.27,6.27,0,0,0-5.63,0c-.59.4-.55.71,0,1A5.34,5.34,0,0,0,7.61,12.34Z"/>
  <path d="M7.63,11.94c-.53-.08-1.31,0-1.32-.68s.78-.7,1.3-.69S9,10.52,9,11.29,8.17,11.87,7.63,11.94Z"/>
</svg>
