<svg xmlns="http://www.w3.org/2000/svg" viewBox="0 0 17.09 24">
  <path d="M8,24a2.21,2.21,0,0,1-1-1.82,61.26,61.26,0,0,0-2-12.91c-.21-.7,0-1,.72-1h12c.71,0,.95.29.71,1s-.65,1.51-.46,2.1c.25.74,1.29.26,2,.51a2.79,2.79,0,0,1,2,2.11,3.1,3.1,0,0,1-1.05,3.09,4.88,4.88,0,0,1-2.88,1.22c-1.09.1-1.46.59-1.42,1.63,0,.65-.17,1.3-.16,1.95a2.4,2.4,0,0,1-1,2.1ZM11.66,9.26H6.76c-.44,0-.84,0-.66.65A63.16,63.16,0,0,1,8,22.22c0,.68.43.77,1,.76,1.67,0,3.34-.05,5,0,1,0,1.35-.25,1.42-1.28a57.46,57.46,0,0,1,1.75-11.59c.23-.81,0-.89-.72-.88C14.84,9.28,13.25,9.26,11.66,9.26ZM21,14.64c0-1.16-.76-1.74-2.19-2-1.25-.19-1.41.5-1.5,1.44s-.27,1.76-.39,2.65c0,.25-.17.55.27.67C18.61,17.85,21,16.11,21,14.64Z" transform="translate(-4.86)"/>
  <path d="M8.75,5.92A3.78,3.78,0,0,1,10.08,3.3,3.66,3.66,0,0,0,11.68.53c0-.31.15-.57.52-.53s.44.33.43.64a3.84,3.84,0,0,1-1.32,2.8A3.66,3.66,0,0,0,9.7,6.19c0,.32-.19.59-.53.54S8.75,6.3,8.75,5.92Z" transform="translate(-4.86)"/>
  <path d="M12.17,6.41A2.83,2.83,0,0,1,13,4.76a2.65,2.65,0,0,0,1.09-1.83.44.44,0,0,1,.57-.47c.33.07.4.37.37.68a3,3,0,0,1-1,1.92,2.32,2.32,0,0,0-1,1.5c0,.34-.13.71-.54.66S12.18,6.71,12.17,6.41Z" transform="translate(-4.86)"/>
</svg>
