<svg xmlns="http://www.w3.org/2000/svg" viewBox="0 0 23.95 23.39">
  <path d="M20.63,6.54l-4.32,5.75c-1.25,1.66-2.51,3.3-3.74,5-.35.47-.6.68-1.05.07C8.93,13.85,6.31,10.38,3.7,6.91c0,0,0-.14-.06-.36,1.4,0,2.77,0,4.15,0,.49,0,.68.34.91.66,1,1.37,1.92,2.74,2.85,4.13.36.53.6.51.94,0,.94-1.39,1.91-2.75,2.86-4.13a1.14,1.14,0,0,1,1-.66C17.69,6.57,19,6.54,20.63,6.54Zm-2,1.1C17,7.26,16,7.55,15.27,8.9s-1.85,2.68-2.75,4c-.39.58-.62.56-1,0-.95-1.42-1.94-2.81-2.92-4.22s-1.29-1.49-3.1-1c2.05,2.72,4.08,5.41,6.1,8.11.29.38.53.41.83,0C14.45,13.13,16.48,10.44,18.6,7.64Z"/>
  <path d="M20,.88h-.06A6.1,6.1,0,0,0,15,.86l-.1,0L14.65,1a6.26,6.26,0,0,0-2.28,1.89c-.26.37-.49.3-.73,0A6.51,6.51,0,0,0,9,.83a6.45,6.45,0,0,0-4.71,0c-4.44,2-5.56,6.44-2.36,10.46s6.47,8,9.68,12c.47.59.71.65,1.21,0,3.18-4.08,6.44-8.1,9.6-12.2C25.31,7.25,24.14,2.8,20,.88ZM22.3,9.34a10.44,10.44,0,0,1-1,1.6c-2.8,3.57-5.64,7.12-8.42,10.71-.56.72-.84.68-1.38,0C8.58,18,5.64,14.46,2.77,10.84c-1.16-1.46-2-3.07-1.66-5A5.51,5.51,0,0,1,5.58,1.36a5.6,5.6,0,0,1,5.66,2.53c.25.4.47.81.7,1.22.47-.24.53-.67.72-1A5.54,5.54,0,0,1,20.23,2,5.37,5.37,0,0,1,22.3,9.34Z"/>
</svg>
