<svg xmlns="http://www.w3.org/2000/svg" viewBox="0 0 23.2 23.2">

  <path d="M12.15,4.87a7.12,7.12,0,1,0,7,7.16A7.13,7.13,0,0,0,12.15,4.87ZM11.91,18A6,6,0,1,1,18,12,6,6,0,0,1,11.91,18Z" />
  <path d="M5.46,4.26a.47.47,0,0,0,.46-.52.49.49,0,0,0-.53-.47.47.47,0,0,0-.45.53A.45.45,0,0,0,5.46,4.26Z" />
  <path d="M8.76,4.29a.56.56,0,0,0,.45-.49.47.47,0,0,0-.47-.52.45.45,0,0,0-.52.46C8.2,4.05,8.39,4.21,8.76,4.29Z" />
  <path d="M12,4.26a.47.47,0,0,0,.46-.52A.5.5,0,0,0,12,3.26c-.3.06-.49.23-.46.54A.45.45,0,0,0,12,4.26Z" />
  <path d="M15.32,4.26a.47.47,0,0,0,.46-.52.49.49,0,0,0-.53-.47.47.47,0,0,0-.45.53A.45.45,0,0,0,15.32,4.26Z" />
  <path d="M18.5,4.26c.31,0,.5-.15.6-.54-.1-.18-.18-.44-.53-.45a.47.47,0,0,0-.48.39A.47.47,0,0,0,18.5,4.26Z" />
  <path d="M3.75,5.91c.31,0,.47-.18.54-.47a.49.49,0,0,0-.47-.52.46.46,0,0,0-.53.46A.47.47,0,0,0,3.75,5.91Z" />
  <path d="M7,5.92a.5.5,0,0,0,.52-.48.49.49,0,0,0-1-.06C6.55,5.69,6.74,5.86,7,5.92Z" />
  <path d="M17,5.9a.46.46,0,0,0,.46-.52.48.48,0,0,0-.52-.47c-.3.06-.49.23-.46.53A.45.45,0,0,0,17,5.9Z" />
  <path d="M20.16,5.9c.32,0,.5-.16.56-.48a.5.5,0,0,0-.53-.5.44.44,0,0,0-.46.41A.46.46,0,0,0,20.16,5.9Z" />
  <path d="M5.39,6.56a.45.45,0,0,0-.45.53c0,.29.21.46.58.47.2-.09.43-.22.4-.54A.47.47,0,0,0,5.39,6.56Z" />
  <path d="M18.48,7.55c.31.06.51-.14.6-.45a.51.51,0,0,0-.49-.54.46.46,0,0,0-.5.37A.48.48,0,0,0,18.48,7.55Z" />
  <path d="M3.3,8.62a.46.46,0,0,0,.43.57c.32,0,.5-.17.56-.48a.52.52,0,0,0-.53-.51A.45.45,0,0,0,3.3,8.62Z" />
  <path d="M20.24,12.48a.48.48,0,0,0,.47-.53c0-.29-.23-.45-.6-.47-.19.09-.42.22-.39.54A.46.46,0,0,0,20.24,12.48Z" />
  <path d="M3.75,14.78a.49.49,0,0,0,.06,1,.49.49,0,0,0,.48-.51C4.22,15,4.06,14.75,3.75,14.78Z" />
  <path d="M20.22,14.77a.5.5,0,0,0-.08,1c.31.05.5-.15.6-.54C20.64,15.05,20.56,14.78,20.22,14.77Z" />
  <path d="M5.39,17.41c.31,0,.47-.18.54-.47a.49.49,0,0,0-.47-.52.45.45,0,0,0-.52.46A.46.46,0,0,0,5.39,17.41Z" />
  <path d="M18.48,17.4c.31.07.51-.13.6-.44a.51.51,0,0,0-.49-.54.45.45,0,0,0-.5.37A.47.47,0,0,0,18.48,17.4Z" />
  <path d="M3.8,18.06a.46.46,0,0,0-.5.38.48.48,0,0,0,.4.61c.3.06.5-.14.59-.45A.51.51,0,0,0,3.8,18.06Z" />
  <path d="M7,18.06a.5.5,0,0,0,.06,1,.5.5,0,0,0,.48-.52C7.51,18.24,7.34,18,7,18.06Z" />
  <path d="M17,18.06a.46.46,0,0,0-.5.38.48.48,0,0,0,.39.61c.31.06.51-.14.6-.45A.51.51,0,0,0,17,18.06Z" />
  <path d="M20.23,18.05a.48.48,0,0,0-.51.48.46.46,0,0,0,.46.52.48.48,0,0,0,.53-.46C20.73,18.28,20.53,18.11,20.23,18.05Z" />
  <path d="M5.41,19.7a.5.5,0,0,0,0,1c.31,0,.5-.17.57-.56C5.85,20,5.74,19.69,5.41,19.7Z" />
  <path d="M8.68,19.7a.48.48,0,0,0-.46.43.47.47,0,0,0,.46.56c.32,0,.49-.18.55-.57C9.13,19.93,9,19.68,8.68,19.7Z" />
  <path d="M11.91,19.71a.45.45,0,0,0-.4.48.48.48,0,0,0,.5.51c.32-.06.52-.24.48-.55A.48.48,0,0,0,11.91,19.71Z" />
  <path d="M15.31,19.71a.44.44,0,0,0-.51.46c0,.31.16.47.53.55a.56.56,0,0,0,.45-.49A.46.46,0,0,0,15.31,19.71Z" />
  <path d="M18.57,19.7a.5.5,0,0,0-.07,1c.31,0,.5-.15.58-.47A.51.51,0,0,0,18.57,19.7Z" />
  <path d="M20.14,9.19c.31.05.5-.15.58-.47a.51.51,0,0,0-.5-.52.46.46,0,0,0-.49.39A.47.47,0,0,0,20.14,9.19Z" />
  <path d="M3.73,11.49a.47.47,0,0,0-.43.58.45.45,0,0,0,.47.41A.51.51,0,0,0,4.29,12C4.23,11.66,4.05,11.45,3.73,11.49Z" />
  <path d="M21.65,7.7c.32,0,.5-.17.55-.48a.5.5,0,0,0-.52-.51.5.5,0,0,0,0,1Z" />
  <path d="M21.73,14.27a.46.46,0,0,0,.46-.52q0-.45-.6-.48c-.19.09-.42.23-.38.54A.45.45,0,0,0,21.73,14.27Z" />
  <path d="M21.7,16.57a.46.46,0,0,0-.49.39.48.48,0,0,0,.41.6c.32.05.51-.15.61-.55C22.13,16.84,22,16.58,21.7,16.57Z" />
  <path d="M21.72,19.85a.5.5,0,1,0,.47.53C22.22,20.08,22,19.91,21.72,19.85Z" />
  <path d="M21.7,10a.46.46,0,0,0-.49.39.48.48,0,0,0,.41.6c.32,0,.51-.15.59-.47A.51.51,0,0,0,21.7,10Z" />
  <path d="M21.21,3.79a.48.48,0,0,0,.44.58c.32,0,.5-.17.55-.49a.49.49,0,0,0-.52-.5A.45.45,0,0,0,21.21,3.79Z" />
  <path d="M2.23,7.57c.32,0,.5-.17.56-.49a.5.5,0,0,0-.53-.5A.46.46,0,0,0,1.79,7,.48.48,0,0,0,2.23,7.57Z" />
  <path d="M2.31,14.14a.46.46,0,0,0,.46-.53c0-.29-.22-.45-.6-.47a.52.52,0,0,0-.38.54A.46.46,0,0,0,2.31,14.14Z" />
  <path d="M2.28,16.43a.46.46,0,0,0-.48.4.46.46,0,0,0,.41.59c.31.06.5-.14.6-.54C2.71,16.71,2.63,16.45,2.28,16.43Z" />
  <path d="M2.3,19.72a.47.47,0,0,0-.51.47.46.46,0,0,0,.46.52.46.46,0,0,0,.52-.46C2.8,19.94,2.6,19.78,2.3,19.72Z" />
  <path d="M2.21,10.85c.31.05.5-.15.58-.46a.52.52,0,0,0-.51-.53.5.5,0,0,0-.07,1Z" />
  <path d="M2.23,4.23c.32,0,.5-.17.56-.48a.52.52,0,0,0-.53-.51.47.47,0,0,0-.47.42A.47.47,0,0,0,2.23,4.23Z" />
  <path d="M21.54.4H2.46A2.07,2.07,0,0,0,.4,2.46V21.54A2.07,2.07,0,0,0,2.46,23.6H21.54a2.07,2.07,0,0,0,2.06-2.06V2.46A2.07,2.07,0,0,0,21.54.4Zm.77,19.85a2.07,2.07,0,0,1-2.06,2.06h-.06a.54.54,0,0,0,.39-.46.5.5,0,0,0-.5-.52.46.46,0,0,0-.49.39.47.47,0,0,0,.39.59H16.91a.5.5,0,0,0,.37-.45.47.47,0,0,0-.46-.53.45.45,0,0,0-.52.46c0,.27.13.43.42.52H13.57a.48.48,0,0,0,.43-.54.5.5,0,0,0-.59-.44.47.47,0,0,0-.4.48.48.48,0,0,0,.46.5H10.24c.28,0,.44-.2.5-.56-.11-.2-.22-.45-.56-.42a.44.44,0,0,0-.45.43.46.46,0,0,0,.43.55H7c.27,0,.43-.19.5-.56-.1-.18-.2-.43-.54-.43a.48.48,0,0,0-.47.42.47.47,0,0,0,.42.57H4a.49.49,0,0,0,.31-.44c0-.3-.18-.47-.48-.53a.47.47,0,0,0-.51.47.45.45,0,0,0,.38.49,2.07,2.07,0,0,1-2-2.05V3.75a2.07,2.07,0,0,1,1.75-2,.43.43,0,0,0-.14.39.45.45,0,0,0,.52.46A.47.47,0,0,0,4.28,2a.47.47,0,0,0-.19-.35H6.74A.5.5,0,0,0,6.58,2c0,.31.16.48.53.56.2-.08.44-.18.46-.49a.45.45,0,0,0-.23-.42h2.71a.42.42,0,0,0-.18.42.45.45,0,0,0,.52.46A.47.47,0,0,0,10.85,2a.44.44,0,0,0-.19-.35h2.68a.45.45,0,0,0-.19.42.46.46,0,0,0,.52.46A.47.47,0,0,0,14.14,2,.51.51,0,0,0,14,1.69H16.6a.48.48,0,0,0-.15.28.47.47,0,0,0,.41.6c.31.05.5-.15.6-.55a1.15,1.15,0,0,0-.24-.33h2.67a.55.55,0,0,0-.16.3.46.46,0,0,0,.43.58c.32,0,.5-.17.56-.48a.6.6,0,0,0-.16-.37,2.07,2.07,0,0,1,1.75,2Z" />

</svg>
