<?xml version="1.0" encoding="utf-8"?>
<!-- Generator: Adobe Illustrator 22.1.0, SVG Export Plug-In . SVG Version: 6.00 Build 0)  -->
<svg version="1.1" id="Layer_1" xmlns="http://www.w3.org/2000/svg" xmlns:xlink="http://www.w3.org/1999/xlink" x="0px" y="0px"
	 viewBox="0 0 24 24" style="enable-background:new 0 0 24 24;" xml:space="preserve">
<g>
	<path d="M17.6,3.6L17.6,3.6c-0.6,0-1,0.4-1,0.9c0,0.5,0.3,0.9,0.8,0.9c0.1,0,0.2,0,0.3,0c0.1,0,0.3,0,0.4-0.1
		c0.2-0.1,0.4-0.3,0.4-0.5c0-0.1,0-0.2,0-0.2C18.6,4.1,18.2,3.7,17.6,3.6z"/>
	<path d="M3,12.9c-0.2,0-0.5,0.1-0.6,0.2c-0.2,0.2-0.3,0.4-0.3,0.6c0,0.1,0,0.1,0,0.1c0,0.2,0.1,0.4,0.3,0.6
		c0.2,0.1,0.4,0.2,0.6,0.2c0.4,0,0.9-0.1,1-0.9l0,0l0,0C3.9,13.2,3.5,12.9,3,12.9z"/>
	<path d="M2.8,7.5C2.8,7.5,2.8,7.5,2.8,7.5c0.2,0,0.4,0,0.5-0.1c0.1-0.1,0.2-0.3,0.3-0.4l0-0.1l0,0c0-0.4-0.4-0.6-0.8-0.6
		c-0.3,0-0.6,0.3-0.6,0.6C2.2,7.2,2.4,7.5,2.8,7.5z"/>
	<path d="M20.5,8L20.5,8c0.4,0,0.6-0.3,0.7-0.6c0-0.3-0.2-0.6-0.6-0.7c0,0-0.1,0-0.1,0c-0.4,0-0.6,0.3-0.6,0.6
		c0,0.2,0.1,0.3,0.2,0.4C20.2,7.9,20.4,8,20.5,8z M20.6,7.8L20.6,7.8L20.6,7.8L20.6,7.8z"/>
	<path d="M20.5,15.8c0.1,0,0.1,0,0.1,0c0.3-0.1,0.6-0.4,0.5-0.7c0-0.2-0.1-0.3-0.3-0.4c-0.1-0.1-0.3-0.1-0.5-0.1c0,0,0,0-0.1,0
		c-0.2,0-0.3,0.1-0.4,0.2c-0.1,0.1-0.1,0.3-0.1,0.4C19.9,15.5,20.2,15.8,20.5,15.8C20.5,15.8,20.5,15.8,20.5,15.8z"/>
	<path d="M23.6,4.3c-0.1-0.9-0.4-1.8-0.9-2.6c-0.5-0.8-1.2-1.4-2.1-1.6c-0.9-0.2-1.8-0.1-2.7,0.3c-0.2,0.1-0.4,0.3-0.6,0.4
		c-0.6,0.5-1.4,0.8-2.2,0.8H2.8C0.9,1.7,0,2.5,0,4.1l0,11.8c-0.1,1.2,0.9,2.3,2.1,2.4l2.6,0v0.8c0,0.3-0.1,0.6-0.1,0.9
		c-0.1,0.3-0.1,0.7-0.1,1c0,0.2,0,0.3,0,0.5c0,0.2,0,0.5,0,0.7c0,0.1,0,0.3-0.1,0.5c-0.1,0.4-0.2,0.8,0.1,1.1
		C4.6,23.9,4.8,24,5.1,24c0.3,0,0.5-0.1,0.6-0.2C6,23.5,6,23.1,5.9,22.7c0-0.2,0-0.3,0-0.5c0.4-3.9,0.4-7.8,0.4-11.6
		c0-1.1,0-2.1,0-3.2C6.2,7,6.2,6.6,6.4,6.3c2.6,1.6,3.6,5,2,7.6c-1.9,3.2-2.2,6-1,8.9l0,0.1c0,0.1,0,0.2,0,0.2
		c0,0.3,0.1,0.8,0.7,0.8c0,0,0.1,0,0.1,0c0.2,0,0.4-0.1,0.5-0.2c0.2-0.3,0.2-0.6,0.2-1c-0.1-1-0.4-1.9-0.7-2.9
		C8,19.4,7.9,18.8,8,18.3l6.9,0c0.9-0.1,1.7,0.2,2.4,0.8c1.4,1.2,3.5,1.1,4.8-0.2c0.1-0.2,0.3-0.3,0.4-0.5c0.5-0.8,0.8-1.6,1-2.5
		C24.1,12,24.2,8.2,23.6,4.3z M18.8,18.4c-0.2-0.1-0.4-0.2-0.6-0.4c-0.8-0.7-1.8-1.1-2.8-1.1c-0.1,0-0.3,0-0.4,0H8.6
		c0.2-0.3,0.4-0.6,0.6-1l0.1-0.1c0.2-0.3,0.3-0.3,0.7-0.1c0.1,0.1,0.2,0.1,0.3,0.1c1.5,0.5,3.2,0.4,4.7-0.3c1.1-0.6,2.2-1.4,3.2-2.2
		c1.3-1.1,1.7-2.7,1.2-4.2c-0.4-1.6-1.7-2.7-3.4-2.9c-0.4-0.1-0.7-0.2-1-0.5c-1.7-1.9-4.5-2.3-6.8-1.1c-0.4,0.3-1,0.3-1.5,0
		C6,4.2,5.5,4,5.2,4.2C4.8,4.4,4.8,4.9,4.8,5.7v11.2l-2.3,0c-0.9-0.1-1-0.3-1-1.1V4.2c0-0.4,0.1-0.7,0.3-0.9
		c0.2-0.2,0.5-0.3,1.1-0.3l12.6,0c1,0.1,1.9-0.3,2.6-1c0.7-0.9,2-1,2.9-0.3c0.3,0.3,0.6,0.6,0.7,1.1c0.5,1.4,0.8,2.9,0.8,4.4
		c0.2,2.7,0.1,5.5-0.4,8.2c-0.1,0.7-0.4,1.3-0.7,1.9c-0.2,0.5-0.6,0.8-1.1,1C19.8,18.6,19.2,18.6,18.8,18.4z M9.4,5.5
		c1.7-0.6,3.6-0.1,4.7,1.3l0.1,0.1c0.3,0.4,0.6,0.7,1.2,0.7c1-0.1,2,0.5,2.3,1.5c0.6,0.9,0.4,2.1-0.4,2.9c-1.1,1.1-2.4,2-3.9,2.6
		c-0.2,0.1-0.5,0.1-0.7,0.1c-0.1,0-0.2,0-0.4,0l-1-0.1c-0.6-0.1-0.9-0.2-1.1-0.4c-0.1-0.2-0.1-0.6,0-1.1C11,10.9,10.5,8.4,9,6.6
		C8.7,6.3,8.6,6,8.7,5.9C8.7,5.7,9,5.6,9.4,5.5z"/>
</g>
</svg>
