<svg viewBox="0 0 12 13"
    xmlns="http://www.w3.org/2000/svg">
    <path d="M6 12.2672C5.85534 12.2672 5.7166 12.2097 5.61431 12.1075C5.51201 12.0052 5.45455 11.8664 5.45455 11.7218V10.0854H3.27273C2.9834 10.0854 2.70592 9.97046 2.50134 9.76587C2.29675 9.56129 2.18182 9.28381 2.18182 8.99448V3.53994C2.18182 3.25061 2.29675 2.97314 2.50134 2.76855C2.70592 2.56396 2.9834 2.44903 3.27273 2.44903H10.9091C11.1984 2.44903 11.4759 2.56396 11.6805 2.76855C11.8851 2.97314 12 3.25061 12 3.53994V8.99448C12 9.28381 11.8851 9.56129 11.6805 9.76587C11.4759 9.97046 11.1984 10.0854 10.9091 10.0854H8.67273L6.65455 12.109C6.54545 12.2072 6.41455 12.2672 6.27273 12.2672H6ZM6.54545 8.99448V10.6745L8.22545 8.99448H10.9091V3.53994H3.27273V8.99448H6.54545ZM1.09091 7.90358H0V1.35812C0 1.06879 0.114935 0.791317 0.31952 0.586732C0.524105 0.382147 0.801582 0.267212 1.09091 0.267212H9.81818V1.35812H1.09091V7.90358ZM4.36364 4.63085H9.81818V5.72176H4.36364V4.63085ZM4.36364 6.81267H8.72727V7.90358H4.36364V6.81267Z"/>
</svg>
