<svg xmlns="http://www.w3.org/2000/svg" viewBox="0 0 22.38 24">
    <path d="M16.23,24C11,24,5.89,24,.79,24,0,24,0,23.47,0,22.93V13.62C0,9.5.06,5.37,0,1.25,0,.23.3,0,1.28,0Q9.86.06,18.44,0c.93,0,1.34.15,1.32,1.22-.07,3.5,0,7,0,10.51,0,.4.19,1-.49,1-.84.05-.55-.66-.56-1.07,0-3.14,0-6.29,0-9.44,0-.94-.29-1.2-1.21-1.19q-7.65.06-15.3,0c-.89,0-1.11.29-1.11,1.14q0,9.78,0,19.56c0,.95.31,1.19,1.22,1.18,4-.05,8.07,0,12.11,0C15.13,22.92,15.82,22.93,16.23,24Z"/>
    <path d="M13.49,19c.16-.16.18-.21.21-.21C16,18.45,16,18.45,16,16.08c0-2.21,0-2.13,2.13-2.24,1.26-.06,1.83.28,1.6,1.59a3.75,3.75,0,0,0,0,.67c0,2.44,0,2.44,2.65,2.67-1.5,1.71-2.86,3.29-4.26,4.84-.37.4-.63-.07-.84-.31C16,21.87,14.77,20.43,13.49,19Zm2.23.82c2.57,3.15,1.79,2.87,4,.36.05-.06,0-.17.07-.34-1.05.13-1.24-.44-1.17-1.33s0-1.76,0-2.64c0-.59-.13-.89-.81-.9s-.81.31-.79.89c0,.83,0,1.67,0,2.51S17.14,20,15.72,19.77Z"/>
    <path d="M6.94,13.34H3.62c-.42,0-.87,0-.83-.6s.47-.45.82-.45h6.64c.36,0,.81,0,.84.44s-.41.61-.83.61Z"/>
    <path d="M7,18.67c1.11,0,2.22,0,3.32,0,.37,0,.77,0,.73.54s-.34.5-.67.5c-2.3,0-4.61,0-6.91,0-.38,0-.75-.1-.73-.57s.46-.47.81-.48C4.74,18.66,5.89,18.67,7,18.67Z"/>
    <path d="M6.11,16.53H3.59c-.36,0-.75,0-.8-.5s.36-.55.72-.55h5.3c.33,0,.67.07.69.46s-.35.58-.73.59Z"/>
    <path d="M9.35,5.17c-1.89,0-3.77,0-5.66,0-.4,0-1,.16-1-.49s.49-.56.93-.56H14.81c.43,0,1-.09,1,.52s-.52.53-.94.54Z"/>
    <path d="M9.19,8.37c-1.83,0-3.67,0-5.5,0-.4,0-1,.15-1-.5s.5-.55.94-.55H14.82c.43,0,.95-.09,1,.52s-.52.53-.94.53Z"/>
</svg>
