<svg xmlns="http://www.w3.org/2000/svg" viewBox="0 0 22.19 24">
    <path d="M22.19,14.39c-1.33,2-3.25,3.49-4.89,5.22A29,29,0,0,0,15,21.91c-1,1.4-2.57,1.65-4.07,2-.74.19-1-.18-.79-.85a7.32,7.32,0,0,1,2-4c2.1-1.9,4-4,6-6,1.68-1.7,2.81-1.56,4,.53Zm-9,7.84a3.72,3.72,0,0,0,.37-.3c2.16-2.14,4.31-4.29,6.48-6.42.64-.62,0-.88-.29-1.23s-.61-.76-1.15-.2c-2.11,2.14-4.24,4.25-6.36,6.37-.21.21-.58.43-.24.79A3,3,0,0,0,13.22,22.23Z"/>
    <path d="M1,11.58c0,3.16,0,6.32,0,9.49,0,.85.25,1.09,1.09,1.07,1.88-.06,3.76,0,5.64,0,.4,0,.91,0,.87.55s-.51.41-.86.41c-2.29,0-4.57,0-6.85,0-.62,0-.84-.18-.84-.82Q0,11.59,0,.89C0,.2.23,0,.91,0,3.79,0,6.67,0,9.56,0a1.66,1.66,0,0,1,1.26.54c2,2,4,4,5.94,6a1.5,1.5,0,0,1,.56,1.14c0,1.64,0,3.28,0,4.93,0,.35,0,.8-.48.82s-.47-.45-.47-.8c0-1.2-.09-2.41,0-3.6S16,7.63,15,7.68c-1.48.08-3,0-4.44,0-.74,0-1-.21-1-1,.05-1.6,0-3.2,0-4.81,0-.67-.11-1-.91-1Q5.3,1,1.87,1C1.08.94,1,1.29,1,2,1,5.17,1,8.37,1,11.58ZM15.2,6.74,10.59,2.13c0,1.32,0,2.7,0,4.07,0,.43.24.54.61.54Z"/>
    <path d="M8.74,10.1H4.19c-.33,0-.78.13-.79-.45s.4-.5.76-.5h9c.34,0,.76-.08.78.47s-.41.48-.75.48Z"/>
    <path d="M8.61,13H4.18c-.32,0-.77.14-.78-.45s.4-.5.76-.5h9c.35,0,.77-.08.78.47s-.42.48-.76.48Z"/>
    <path d="M8.56,15.87H4.13c-.34,0-.77.08-.73-.5s.37-.46.69-.46h9.1c.37,0,.76,0,.73.53s-.49.42-.81.42C11.6,15.88,10.08,15.87,8.56,15.87Z"/>
    <path d="M6.56,18.75c-.84,0-1.67,0-2.51,0-.32,0-.66,0-.65-.46s.31-.49.65-.49H9c.34,0,.64,0,.65.48s-.33.47-.65.47C8.15,18.76,7.35,18.75,6.56,18.75Z"/>
</svg>
