<svg xmlns="http://www.w3.org/2000/svg" viewBox="0 0 24 20.98">
  <path d="M11.86,21H1.14c-1.26,0-1.4-.24-.79-1.31Q5.8,10.24,11.25.8c.62-1.08.89-1.07,1.52,0Q18.2,10.21,23.61,19.6c.66,1.15.53,1.37-.79,1.38ZM1.33,19.93H22.54a3.23,3.23,0,0,0-.12-.43q-5-8.65-10-17.31c-.41-.73-.63-.46-.94.07Q9.27,6.18,7,10.08Z"/>
  <path d="M12.72,11c0,1,0,1.92,0,2.88,0,.49,0,.85-.69.85s-.77-.21-.76-.78c0-1.91,0-3.83,0-5.75,0-.56.18-.78.76-.79s.7.33.69.83C12.7,9.19,12.72,10.11,12.72,11Z"/>
  <path d="M12.73,16.78c0,.56,0,.95-.66.94s-.84-.12-.82-.73,0-.88.68-.84C12.42,16.17,12.87,16.17,12.73,16.78Z"/>
</svg>
