<svg xmlns="http://www.w3.org/2000/svg" viewBox="0 0 24 22.93">
  <path d="M12.27,6.08a1.31,1.31,0,0,0,1-.84c-.49,0-.87,0-1.25,0s-1.06-.18-1.44.31c-.06.08,0,.36.12.44A1.54,1.54,0,0,0,12.27,6.08Z" transform="translate(0 -0.53)"/>
  <path d="M11.2,9.35a2.49,2.49,0,0,0,2.21-1c-.92,0-1.59,0-2.25,0-.29,0-.66,0-.62.46S10.89,9.33,11.2,9.35Z" transform="translate(0 -0.53)"/>
  <path d="M22.73,12c-.13,0-.35-.2-.35-.31,0-1.8-.92-3.46-.56-5.35S22,3.46,19.76,3.63c-.82.06-1.66,0-2.47,0a1.63,1.63,0,0,1-2-1.18A2.94,2.94,0,0,0,12.49.53a3.14,3.14,0,0,0-2.85,2,12.15,12.15,0,0,0-1.06,4c-.05.43.1,1-.72,1.42A3.28,3.28,0,0,0,7.7,6.34c-.16-.23-.35-.21-.35-.64,0-1-.41-1.92-1.08-2.05-.34,0-.69,0-1,0,0,0-.83.39-.88,2,0,.63-.28.06-.72,1.25l-.06.17v0h0v0a.47.47,0,0,1,0,.1,1.8,1.8,0,0,1-1.31.93c-.5.12-.61.79-.61,1.34s0,1.12,0,1.69c0,.29.07.67-.36.72C.07,12.07,0,12.85,0,13.75s0,1.8,1.21,1.9c.26,0,.33.24.35.47.21,2,1.17,3.81,1.69,5.73a2,2,0,0,0,2.17,1.62c4.39,0,8.78,0,13.16,0a1.9,1.9,0,0,0,2.11-1.52c.55-2,1.49-3.8,1.75-5.84,0-.23.09-.43.36-.46,1.23-.13,1.19-1,1.2-1.93S23.84,12.06,22.73,12Zm-7-6.55c-.22-.31,0-.74.57-.73,1.34,0,2.69,0,4,0,.48,0,.72.37.52.66-.85,1.2-.12,2.34.06,3.48C21.4,12,21.43,12,18.26,12s-3.18,0-2.64-3.21C15.81,7.67,16.51,6.58,15.7,5.41ZM9.4,9.51C9.56,7.24,9.58,5,10.58,3a2,2,0,0,1,2.28-1.35,2.11,2.11,0,0,1,1.81,2.11c-.22,1.68.54,3.35-.09,5,0,0,0,.08,0,.12-.29,1,.08,2.48-.67,2.94-1.05.64-2.53.14-3.82.21-.52,0-.69-.22-.67-.7S9.4,10.06,9.4,9.51ZM5.73,4.69c.46,0,.53.28.52.6s-.33.43-.63.42-.39-.25-.38-.52S5.4,4.63,5.73,4.69Zm0,2.09c.41,0,1.07-.25,1,.56s-.65.34-1,.5c-.43-.14-1.12.26-1.08-.59S5.34,6.78,5.72,6.78ZM4,8.84c.82.08,1.64,0,2.46,0,.61,0,1.51-.37,1.76.29a6.56,6.56,0,0,1,.06,2.43c0,.42-.4.38-.69.39H4.26c-1.66,0-1.6,0-1.67-1.65C2.55,9.22,2.87,8.72,4,8.84Zm16.9,9.05c-.38,1.15-.8,2.29-1.13,3.46a1.3,1.3,0,0,1-1.49,1.08c-2.13-.06-4.26,0-6.38,0s-4.17,0-6.25,0a1.29,1.29,0,0,1-1.51-1.05c-.44-1.5-1-3-1.46-4.45-.29-.9-.1-1.45,1-1.31a4.52,4.52,0,0,0,1,0c.72-.08,1,.19,1,.94,0,.91,0,1.82,0,2.73-.06,1.21.78,1,1.5,1s1.67.28,1.64-1c0-.95,0-1.91,0-2.86,0-.5.09-.82.71-.81s.88.15.86.8c0,1,0,2,0,3s.71.95,1.35.89,1.72.45,1.77-.87c0-1,0-1.91,0-2.86,0-.6.06-1,.83-1s.75.4.74.92c0,.87.06,1.75,0,2.61-.11,1.33.76,1.17,1.6,1.2s1.66,0,1.55-1.27c-.07-.82,0-1.65,0-2.48s.2-1,.95-1C21.69,15.56,21.71,15.56,20.94,17.89Zm-14.18,1v-2.4a.58.58,0,1,1,1.15,0v2.4a.58.58,0,0,1-1.15,0Zm4.66,0v-2.4a.58.58,0,0,1,1.16,0v2.4a.58.58,0,0,1-1.16,0Zm4.72,0v-2.4a.58.58,0,1,1,1.15,0v2.4a.58.58,0,0,1-1.15,0ZM22,14.59H2.05c-.54,0-1,.06-1-.76S1.44,13,2,13H21.94c.56,0,1,0,1,.78S22.54,14.6,22,14.59Z" transform="translate(0 -0.53)"/>
</svg>
