<svg viewBox="0 0 14 13" xmlns="http://www.w3.org/2000/svg">
<path d="M6.75127 10.4361L6.68587 10.5015L6.61394 10.4361C3.50767 7.61762 1.45426 5.75386 1.45426 3.86394C1.45426 2.55604 2.43519 1.57511 3.74309 1.57511C4.75018 1.57511 5.7311 2.22906 6.0777 3.11844H7.29405C7.64064 2.22906 8.62157 1.57511 9.62865 1.57511C10.9366 1.57511 11.9175 2.55604 11.9175 3.86394C11.9175 5.75386 9.86407 7.61762 6.75127 10.4361ZM9.62865 0.267212C8.49078 0.267212 7.39868 0.796912 6.68587 1.62743C5.97306 0.796912 4.88097 0.267212 3.74309 0.267212C1.72892 0.267212 0.146362 1.84323 0.146362 3.86394C0.146362 6.32934 2.3698 8.35005 5.73764 11.404L6.68587 12.2672L7.6341 11.404C11.0019 8.35005 13.2254 6.32934 13.2254 3.86394C13.2254 1.84323 11.6428 0.267212 9.62865 0.267212Z"/>
</svg>
