<svg xmlns="http://www.w3.org/2000/svg" viewBox="0 0 24 24">
  <path d="M10.17,13.83a1.26,1.26,0,0,1,0,1.84,1.3,1.3,0,0,1-1.84,0,6.47,6.47,0,0,1,0-9.17l4.59-4.6a6.49,6.49,0,0,1,9.18,9.18L20.17,13a9.12,9.12,0,0,0-.52-3.14l.61-.62a3.9,3.9,0,1,0-5.51-5.51L10.17,8.33A3.87,3.87,0,0,0,10.17,13.83Zm3.66-5.5a1.3,1.3,0,0,1,1.84,0,6.48,6.48,0,0,1,0,9.18L11.08,22.1A6.49,6.49,0,0,1,1.9,12.92L3.83,11a9.21,9.21,0,0,0,.52,3.15l-.61.61a3.9,3.9,0,1,0,5.51,5.51l4.58-4.59a3.87,3.87,0,0,0,0-5.5A1.26,1.26,0,0,1,13.83,8.33Z"/>
</svg>
