<svg xmlns="http://www.w3.org/2000/svg" viewBox="0 0 23.94 24">
  <path d="M19.22,5c-.73-.28-1-.67-1-1.26s0-1.28,0-1.92S18,1,17.39,1Q9.6,1,1.8,1c-.64,0-.81.32-.81.9Q1,12,1,22.12c0,.67.28.92.94.92C7,23,12.15,23,17.27,23c.71,0,1-.26,1-1s0-1.2,0-1.8A1.15,1.15,0,0,1,19.14,19a14.58,14.58,0,0,1,0,3.79c-.15,1-1,1.19-1.93,1.19C12.62,24,8,24,3.43,24,0,24,0,24,0,20.63V2.16C0,.37.41,0,2.22,0H17.09c1.69,0,2.12.43,2.13,2.12C19.23,3,19.22,4,19.22,5Z" transform="translate(-0.03)"/>
  <path d="M22.12,11.24,18.75,7.91c-.23-.22-.45-.45-.67-.68s-.38-.46-.15-.73.58-.15.82.08l5,5c.33.33.24.61-.06.91-1.65,1.63-3.28,3.27-4.92,4.9-.23.22-.49.5-.82.18s0-.66.21-.91l3.93-3.87c-.42-.49-.88-.29-1.28-.29-3.91,0-7.82,0-11.73,0-.32,0-.64,0-1-.05a.42.42,0,0,1-.37-.4.41.41,0,0,1,.41-.48c.32,0,.64,0,1,0h12.8Z" transform="translate(-0.03)"/>
</svg>
