<?xml version="1.0" encoding="utf-8"?>
<!-- Generator: Adobe Illustrator 22.1.0, SVG Export Plug-In . SVG Version: 6.00 Build 0)  -->
<svg version="1.1" id="Layer_1" xmlns="http://www.w3.org/2000/svg" xmlns:xlink="http://www.w3.org/1999/xlink" x="0px" y="0px"
	 viewBox="0 0 24 24" style="enable-background:new 0 0 24 24;" xml:space="preserve">
<g>
	<path d="M24,13.3v1.1c0,4.4,0,4.4-3.8,6.8c-0.4,0.3-0.9,0.3-1.3,0c-2.9-1.6-5.8-1.9-8.7,0.1c-0.4,0.3-1,0.3-1.3,0
		c-2.7-1.7-5.4-3.3-8.1-5C0.3,16.1,0,15.6,0,15.1c0-2.7,0-5.5,0-8.2c-0.1-1,0.6-1.8,1.5-1.9c3.1-0.7,6.3-1.5,9.3-2.4
		c1-0.3,2.1-0.2,3,0.2c2.9,1.4,5.8,2.8,8.7,4.2c0.9,0.4,1.5,1.3,1.4,2.3C24,10.6,24,12,24,13.3z M12,3.5c-0.3,0-0.6,0.1-0.9,0.2
		c-3,1-6,1.6-9.1,2.4c-0.3,0-0.8,0-0.9,0.5s0.5,0.6,0.8,0.8c2.3,1.2,4.6,2.3,6.8,3.4c0.4,0.3,0.9,0.3,1.2,0c2.3-1.6,5.4-1.9,7.9-0.6
		c1.1,0.7,2.6,0.6,3.6-0.4c0.2-0.1,0.4-0.2,0.6-0.4c1.1-0.8,1-1-0.2-1.6c-2.7-1.3-5.5-2.6-8.2-4C13.1,3.6,12.6,3.5,12,3.5z
		 M14.5,10.7c-1.2,0-2.4,0.2-3.6,0.7c-0.9,0.4-0.7,1.3-0.5,1.9s0.8,0,1.1-0.1c1.9-0.6,4-0.5,5.9,0.1c1,0.4,1.1,0,1.1-0.9
		c0-0.6-0.4-1.1-0.9-1.2C16.6,10.9,15.6,10.7,14.5,10.7L14.5,10.7z M14.3,16.7c-1.1,0-2.3,0.2-3.3,0.7c-0.7,0.3-1,1.1-0.6,1.8l0,0
		c0.2,0.7,0.8,0.1,1.2,0c1.9-0.5,4-0.5,5.9,0.1c1,0.4,1,0,1-0.8c0-0.6-0.4-1.1-1-1.3C16.5,16.9,15.4,16.7,14.3,16.7L14.3,16.7z
		 M1.3,13.9C1,14.7,1,15.2,1.7,15.7c2.3,1.4,4.6,2.8,6.8,4.2C8.7,20,9.1,20.3,9.1,20c0.1-0.7,0.5-1.6-0.4-2.1
		C6.3,16.5,3.8,15.3,1.3,13.9z M1.3,11.1C0.9,11.7,1,12.5,1.6,13c0.1,0,0.2,0.1,0.4,0.1c2.1,1,4.1,2.1,6.2,3.2
		c0.3,0.1,0.8,0.7,1,0.2C9.5,16.1,9.5,15.4,9,15c0,0-0.1-0.1-0.2-0.1C6.3,13.6,3.8,12.4,1.3,11.1L1.3,11.1z M9.3,12.9
		c0.1-0.6-0.4-0.8-0.9-1c-2.1-1-4.1-2.1-6.2-3.1c-0.3-0.1-0.8-0.7-1-0.1C0.9,9.1,1.1,9.8,1.5,10c0,0,0,0,0.1,0
		c2.3,1.2,4.6,2.3,6.9,3.5C9.2,13.9,9.3,13.5,9.3,12.9L9.3,12.9z M10.5,16.3c2.3-0.9,4.9-1,7.3-0.2c0.8,0.3,0.7-0.1,0.7-0.6
		s-0.5-0.8-1-1c-2-0.8-4.2-0.8-6.2,0c-0.7,0.2-1.1,0.9-0.9,1.5C10.4,16.2,10.5,16.3,10.5,16.3L10.5,16.3z M22.7,12.7
		c-1.1,1.5-3.6,1.4-2.9,4.3C20.9,15.6,23.4,15.7,22.7,12.7L22.7,12.7z M19.8,20.2c1-0.7,1.8-1.3,2.7-1.8c0.7-0.5,0.4-1.1,0.4-1.7
		c0-0.2-0.2-0.2-0.4-0.2C20.8,16.9,19.8,18.5,19.8,20.2L19.8,20.2z M19.8,13.6c1-0.7,1.9-1.3,2.8-1.9c0.3-0.2,0.5-0.7,0.2-1
		c0,0,0,0-0.1-0.1c-0.3-0.3-0.5,0.1-0.8,0.2c-0.6,0.4-1.1,0.8-1.7,1.1S19.5,12.8,19.8,13.6L19.8,13.6z"/>
	<path d="M12.6,5.7c-0.4,0-0.6-0.2-0.6-0.5c0-0.2,0.2-0.4,0.4-0.5s0.5,0.1,0.5,0.3c0,0,0,0,0,0.1C13,5.4,12.9,5.7,12.6,5.7z"/>
	<path d="M9.2,6.3C9.1,6.7,9,6.9,8.6,6.8c-0.3,0-0.4-0.3-0.4-0.5c0,0,0,0,0-0.1c0-0.2,0.2-0.4,0.5-0.4C9,5.9,9.2,6.1,9.2,6.3z"/>
	<path d="M4.4,6.4c0.3,0,0.5,0.2,0.5,0.5V7c0,0.3-0.2,0.4-0.5,0.4H4.3C4,7.3,3.9,7.1,3.9,6.9C3.9,6.6,4.1,6.4,4.4,6.4
		C4.3,6.4,4.4,6.4,4.4,6.4z"/>
	<path d="M16.3,7.4c0,0.3-0.2,0.5-0.4,0.5l0,0c-0.2,0-0.4-0.1-0.5-0.4c-0.1-0.2,0-0.5,0.3-0.6h0.1C16,6.9,16.2,7.1,16.3,7.4z"/>
	<path d="M13.6,7.9c0,0.3-0.2,0.5-0.4,0.5l0,0c-0.2,0-0.4-0.1-0.5-0.4c-0.1-0.2,0.1-0.5,0.3-0.6h0.1C13.3,7.4,13.5,7.6,13.6,7.9z"/>
	<path d="M9.3,9C9,9,8.8,8.8,8.8,8.5C8.8,8.3,9,8.1,9.2,8c0.2,0,0.5,0.1,0.5,0.4v0.1C9.8,8.7,9.6,9,9.3,9z"/>
	<path d="M20.1,8.5c0,0.3-0.2,0.5-0.5,0.5s-0.5-0.2-0.5-0.5S19.3,8,19.6,8C19.9,8,20,8.2,20.1,8.5z"/>
</g>
</svg>
