<svg xmlns="http://www.w3.org/2000/svg" viewBox="0 0 24 19.25">
    <g>
        <path d="M24,13.46v1.09C24,19,24,19,20.21,21.34a1.07,1.07,0,0,1-1.32,0c-2.9-1.62-5.84-1.88-8.69.15a1,1,0,0,1-1.33,0q-4-2.52-8.1-5A1.35,1.35,0,0,1,0,15.2C0,12.48.05,9.76,0,7A1.76,1.76,0,0,1,1.56,5.12c3.13-.73,6.26-1.46,9.34-2.43a4,4,0,0,1,3,.24Q18.27,5,22.64,7.12A2.17,2.17,0,0,1,24,9.38C24,10.74,24,12.1,24,13.46ZM12,3.59a6.24,6.24,0,0,0-.86.15c-3,1-6,1.63-9.07,2.39-.39.1-.88.09-.92.63s.45.63.8.8C4.25,8.72,6.52,9.86,8.78,11A1,1,0,0,0,10,11a7.69,7.69,0,0,1,7.9-.6A2.86,2.86,0,0,0,21.47,10c.17-.14.38-.24.57-.37,1.06-.75,1.05-1-.16-1.64-2.73-1.33-5.47-2.64-8.2-4A3.94,3.94,0,0,0,12,3.59Zm2.48,7.23a7.78,7.78,0,0,0-3.55.73c-.85.45-.72,1.29-.5,1.91s.76,0,1.14-.09a9.84,9.84,0,0,1,5.86.11c1,.37,1.12,0,1.1-.86a1.24,1.24,0,0,0-.89-1.21A7.62,7.62,0,0,0,14.52,10.82Zm-.15,6a7.55,7.55,0,0,0-3.3.68,1.37,1.37,0,0,0-.62,1.87c.24.74.81.09,1.2,0a10,10,0,0,1,5.9.14c1,.36,1,0,1-.83a1.34,1.34,0,0,0-1-1.29A8,8,0,0,0,14.37,16.81ZM1.3,14.07c-.28.76-.3,1.3.4,1.72C4,17.18,6.26,18.6,8.54,20c.2.12.6.43.65.06.1-.7.49-1.59-.4-2.07C6.32,16.66,3.82,15.38,1.3,14.07Zm0-2.8a1.3,1.3,0,0,0,.69,2c2.07,1,4.1,2.13,6.16,3.18.3.15.75.69,1,.17A1.05,1.05,0,0,0,8.85,15C6.36,13.77,3.85,12.53,1.32,11.27Zm8,1.78c.11-.64-.42-.8-.86-1-2.07-1-4.13-2.09-6.2-3.11-.32-.15-.76-.67-1-.15a1,1,0,0,0,.39,1.41c2.31,1.16,4.63,2.3,6.93,3.47C9.22,14,9.3,13.63,9.28,13.05Zm1.24,3.42a10.43,10.43,0,0,1,7.32-.17c.76.27.73-.15.7-.64s-.5-.84-1-1a8.69,8.69,0,0,0-6.21,0A1.27,1.27,0,0,0,10.52,16.47Zm12.21-3.6c-1.13,1.47-3.64,1.45-2.87,4.34C20.88,15.69,23.43,15.8,22.73,12.87Zm-2.94,7.42c1-.68,1.83-1.27,2.68-1.84.68-.46.41-1.13.4-1.73,0-.21-.2-.23-.4-.2A3.92,3.92,0,0,0,19.79,20.29Zm0-6.56c1-.69,1.9-1.29,2.78-1.92a.74.74,0,0,0,.19-1.09c-.27-.33-.55.09-.8.23-.58.35-1.12.77-1.71,1.11S19.5,12.88,19.82,13.73Z" transform="translate(-0.02 -2.5)"/>
        <path d="M12.63,5.86c-.38,0-.55-.19-.56-.5a.44.44,0,0,1,.39-.47.46.46,0,0,1,.56.42A.49.49,0,0,1,12.63,5.86Z" transform="translate(-0.02 -2.5)"/>
        <path d="M9.22,6.47c-.06.32-.24.51-.55.47a.47.47,0,0,1-.41-.58A.45.45,0,0,1,8.73,6,.49.49,0,0,1,9.22,6.47Z" transform="translate(-0.02 -2.5)"/>
        <path d="M4.39,6.51a.47.47,0,0,1,.46.55.46.46,0,0,1-.57.42A.44.44,0,0,1,3.9,7,.47.47,0,0,1,4.39,6.51Z" transform="translate(-0.02 -2.5)"/>
        <path d="M16.3,7.5a.48.48,0,0,1-.46.53.43.43,0,0,1-.48-.36.45.45,0,0,1,.37-.6C16,7,16.22,7.19,16.3,7.5Z" transform="translate(-0.02 -2.5)"/>
        <path d="M13.58,8.06a.48.48,0,0,1-.46.51.44.44,0,0,1-.49-.36.46.46,0,0,1,.37-.6C13.3,7.55,13.5,7.74,13.58,8.06Z" transform="translate(-0.02 -2.5)"/>
        <path d="M9.36,9.13c-.38,0-.55-.19-.56-.5a.44.44,0,0,1,.39-.47.45.45,0,0,1,.56.42A.49.49,0,0,1,9.36,9.13Z" transform="translate(-0.02 -2.5)"/>
        <path d="M20.12,8.58c0,.34-.18.54-.5.54a.48.48,0,0,1,0-1C19.9,8.12,20,8.34,20.12,8.58Z" transform="translate(-0.02 -2.5)"/>
    </g>
</svg>
