<svg xmlns="http://www.w3.org/2000/svg" viewBox="0 0 24 24">
  <g>
    <path d="M16,10.46a1.79,1.79,0,0,0-1.92-.2c-1.17.54-2.41,4-1.85,5.12a2.24,2.24,0,0,0,1.5,1.28,3,3,0,0,0,.43.06,2.37,2.37,0,0,0,2-.8,2.16,2.16,0,0,0,.56-2,2.76,2.76,0,0,1,0-1.61A1.68,1.68,0,0,0,16,10.46Zm-1.56,5.33c-.9,0-1.37-.52-1.49-1.39A1.39,1.39,0,0,1,14.44,13a1.31,1.31,0,0,1,1.41,1.33A1.33,1.33,0,0,1,14.48,15.79Zm.9-3.62c-.42-.29-1.18.13-1.31-.46-.09-.43.44-.71.93-.66a.93.93,0,0,1,.86.82C15.84,12.23,15.59,12.31,15.38,12.17Z" transform="translate(-0.15 0)"/>
    <path d="M23.4,12h0c-.09-.25-.18-.51-.28-.76A19,19,0,0,0,11.35.31C9.74-.26,9.54-.14,9,1.43c-.33.9-.63,1.81-1,2.69q-3.74,9-7.48,18c-.58,1.36-.56,2.13.85,1.58,7.08-2.85,14-6,21.23-8.59a4.82,4.82,0,0,0,1-.47C24.28,14.11,24,13.72,23.4,12ZM8.16,8.16A1.91,1.91,0,0,1,10.08,10,1.94,1.94,0,0,1,8.19,12c-.9,0-1.8-.69-1.77-1.42C6.46,9.48,7.41,8.17,8.16,8.16ZM4.31,16.8a.9.9,0,0,1,.93.88.89.89,0,0,1-1,1,.8.8,0,0,1-.88-.8A1,1,0,0,1,4.31,16.8Zm5.86,1.87c-.9.06-1.38-.5-1.52-1.36a1.38,1.38,0,0,1,1.42-1.46,1.31,1.31,0,0,1,1.44,1.3A1.33,1.33,0,0,1,10.17,18.67Zm8.4-3.14a12.56,12.56,0,0,0-1.53.62h0a25.38,25.38,0,0,1-3.28,1.35,8.2,8.2,0,0,0-1.19.53c0-1.63-.51-2.89-2.21-3.13A2.19,2.19,0,0,0,8,16.17c-.67,1.27-.14,2.29,1,3.3L1.38,22.59c.49-1.19.88-2.13,1.25-3.06.19-.45.43-.27.76-.15a1.88,1.88,0,0,0,2.68-.95A1.83,1.83,0,0,0,4.88,16c-.45-.2-.66-.31-.42-.83.46-1,.87-2.06,1.28-3,.42-.1.56.2.77.34a2.74,2.74,0,0,0,3.17.06A2.69,2.69,0,0,0,11,9.6,2.76,2.76,0,0,0,8.84,7.28c-.52-.13-1.28-.06-.69-.93.39-.58.06-2,1.61-1.32A17.15,17.15,0,0,1,19,14.27C19.33,14.92,19.31,15.31,18.57,15.53Zm4-1.48-.11,0c-2,.85-2,.85-2.94-1.1a17.2,17.2,0,0,0-9-8.62C9.3,3.85,9.18,3.29,9.72,2.27c.22-.42.15-1,.67-1.23.28.08.47.12.66.19a18.46,18.46,0,0,1,11.86,12C23.07,13.69,23,13.92,22.56,14.05Z"/>
  </g>
</svg>
