<svg xmlns="http://www.w3.org/2000/svg" viewBox="0 0 19.83 24">
  <path d="M2.09,12c0-2.82,0-5.64,0-8.47C2.11,1.26,3.33,0,5.64,0c5,0,10.07,0,15.1,0,.93,0,1.18.28,1.17,1.18q-.06,8.46,0,16.93c0,1-.33,1.22-1.27,1.21-4.78,0-9.55,0-14.32,0-.35,0-.7,0-1,0-1.31.08-2.14.79-2.13,1.82A2,2,0,0,0,5.3,22.94c3.56,0,7.12,0,10.68,0,1.64,0,3.29,0,4.94,0,.41,0,.95-.15.95.55S21.35,24,21,24c-5.25,0-10.51,0-15.76,0A3,3,0,0,1,2.1,20.76C2.07,17.85,2.09,15,2.09,12ZM20.85,9.75c0-2.52,0-5,0-7.55,0-.93-.31-1.16-1.19-1.16-4.6,0-9.2,0-13.8,0-2,0-2.74.69-2.75,2.73,0,4.51,0,9,0,13.53,0,1,0,1.72,1.32,1.09A3.72,3.72,0,0,1,6,18.27c4.55,0,9.11,0,13.66,0,1,0,1.26-.29,1.23-1.25C20.81,14.6,20.85,12.17,20.85,9.75Z" transform="translate(-2.08 0)"/>
  <path d="M14.63,9.38c-1-.54-1.64.27-2.35,1C10.74,12,9.16,13.52,7.59,15.07c-.29.28-.62.82-1.07.4s.08-.85.38-1.15c1.67-1.7,3.35-3.4,5.06-5.06a1.82,1.82,0,0,0,.64-1.8,3.57,3.57,0,0,1,4.07-3.74,1.82,1.82,0,0,1,1.51,1.43A3.71,3.71,0,0,1,14.63,9.38ZM17.2,5.52c0-.31-.25-.74-.95-.79a2.75,2.75,0,0,0-2.66,2.19c-.05.86.27,1.42,1.23,1.43A2.75,2.75,0,0,0,17.2,5.52Z" transform="translate(-2.08 0)"/>
  <path d="M6.28,5.79a2.61,2.61,0,0,1,.5-1.58c.38-.54.78-.62,1.27-.12,1.12,1.15,2.26,2.28,3.38,3.43.24.24.53.55.21.89s-.71.06-1-.21C9.79,7.34,9,6.47,8.09,5.62c-.15-.15-.3-.38-.54-.28s-.24.44-.21.69c.1.8.76,1.23,1.25,1.76s1,1,1.43,1.51a.5.5,0,0,1,.08.6.46.46,0,0,1-.56.21C8.68,9.9,6.28,6.74,6.28,5.79Z" transform="translate(-2.08 0)"/>
  <path d="M13.7,11.5c-.12-.2-.18-.32-.25-.42-.2-.29-.23-.61.07-.81s.57,0,.8.24c1.35,1.34,2.71,2.69,4.05,4,.24.24.55.53.21.88s-.71.05-1-.21c-.74-.73-1.5-1.44-2.2-2.21-.53-.58-1-.81-1.54,0s-1.22.54-1.77-.13c-.2-.24-.41-.49-.2-.81s.49-.24.78-.06C13.31,12.37,13.44,11.84,13.7,11.5Z" transform="translate(-2.08 0)"/>
</svg>
