<svg xmlns="http://www.w3.org/2000/svg" viewBox="0 0 24 24">


    <path d="M12,24A12,12,0,1,1,24,12.08,12,12,0,0,1,12,24ZM1,12A11,11,0,1,0,12,1,11,11,0,0,0,1,12Z"/>
    <path d="M12,5.22a15.69,15.69,0,0,1,4.49.35,2.35,2.35,0,0,1,1.67,1.88,27.85,27.85,0,0,1,.59,3.79,3.48,3.48,0,0,1-3.14,3.9c-.91,0-2.05-.38-2.67.19-.77.73.4,1.6.44,2.47a2.93,2.93,0,0,1-.64,2.55c-.91.87-2,.59-2.23-.63a4.91,4.91,0,0,0-2.32-3.46C6.91,15.44,6.35,14,5.36,13a.58.58,0,0,1,0-.83.5.5,0,0,1,.69.16c1.31,2.07,3.53,3.33,4.84,5.39a6.24,6.24,0,0,1,.47,1.34c.08.22,0,.59.4.55s.43-.28.5-.54a4,4,0,0,0-.41-2.4c-.72-1.8-.24-2.52,1.68-2.59.65,0,1.3,0,2,0,.84,0,1.38,0,1.52-1.2.09-.79,1-1.47,0-2.31-.14-.13.08-.39.23-.55a2.06,2.06,0,0,0,.32-.41A.42.42,0,0,0,17.5,9c-1.16-.5.13-2.58-1.91-2.65a26.19,26.19,0,0,0-7.9.46C7.15,7,6.6,7.13,6,7.23c-.32,0-.74.13-.8-.39s.26-.54.64-.64A22.54,22.54,0,0,1,12,5.22Z"/>

</svg>
