<svg xmlns="http://www.w3.org/2000/svg" viewBox="0 0 24.01 24">
  <path d="M19.2,14.41a4.78,4.78,0,0,0-3.37,1.39L9.52,12.71A5.51,5.51,0,0,0,9.59,12a.51.51,0,0,0,0-.13l6.74-3.28A4.78,4.78,0,1,0,14.42,4.8c0,.12,0,.23,0,.35L7.87,8.35A4.79,4.79,0,1,0,7.39,16l7,3.44a4.78,4.78,0,1,0,4.77-5.05ZM19.21,1a3.8,3.8,0,1,1-3.79,3.8A3.8,3.8,0,0,1,19.21,1ZM14.49,6.25,15.32,8l-5.76,2.8L8.73,9.05ZM1,12a3.8,3.8,0,1,1,3.79,3.8A3.8,3.8,0,0,1,1,12Zm7.51,3.46.84-1.72,5.75,2.81-.83,1.72ZM19.2,23A3.8,3.8,0,1,1,23,19.2,3.8,3.8,0,0,1,19.2,23Z"/>
</svg>
