<?xml version="1.0" encoding="utf-8"?>
<!-- Generator: Adobe Illustrator 22.1.0, SVG Export Plug-In . SVG Version: 6.00 Build 0)  -->
<svg version="1.1" id="Layer_1" xmlns="http://www.w3.org/2000/svg" xmlns:xlink="http://www.w3.org/1999/xlink" x="0px" y="0px"
	 viewBox="0 0 12.5 12.5" style="enable-background:new 0 0 12.5 12.5;" xml:space="preserve">
<g>
	<polygon points="5.7,3.2 5.7,6.8 6.3,6.8 8.1,3.7 7.5,3.4 6.4,5.3 6.4,3.2 	"/>
	<path d="M6.2,0.1c-3.4,0-6.1,2.8-6.1,6.2c0,3.3,2.7,6.1,6.1,6.1c3.4,0,6.2-2.7,6.2-6.1C12.4,2.9,9.6,0.1,6.2,0.1z M6.2,11.3
		c-2.8,0-5.1-2.3-5.1-5.1c0-2.9,2.3-5.1,5.1-5.1s5.1,2.3,5.1,5.1S9.1,11.3,6.2,11.3z"/>
</g>
</svg>
