<svg width="14" height="14" viewBox="0 0 14 14" xmlns="http://www.w3.org/2000/svg">
<path d="M6.96606 12.1173C9.72856 12.1173 11.9661 9.87981 11.9661 7.11731C11.9661 4.35481 9.72856 2.11731 6.96606 2.11731C4.20356 2.11731 1.96606 4.35481 1.96606 7.11731C1.96606 9.87981 4.20356 12.1173 6.96606 12.1173ZM6.96606 0.86731C10.4036 0.86731 13.2161 3.67981 13.2161 7.11731C13.2161 10.5548 10.4036 13.3673 6.96606 13.3673C3.50981 13.3673 0.716064 10.5548 0.716064 7.11731C0.716064 3.67981 3.52856 0.86731 6.96606 0.86731ZM9.02856 4.49231L7.15356 7.74231H6.34106V3.99231H7.27856V5.64856L8.21606 4.02356L9.02856 4.49231Z"/>
</svg>
