<svg xmlns="http://www.w3.org/2000/svg" viewBox="0 0 24 20.08">
  <path d="M24,4.17a2.34,2.34,0,0,1-1.17.17H6.91l-.72,0a.41.41,0,0,1-.43-.46.39.39,0,0,1,.41-.46l.24,0L24,3.45Z" transform="translate(0 -1.96)"/>
  <path d="M24,12.31a2.34,2.34,0,0,1-1.17.17H6.91l-.72,0A.41.41,0,0,1,5.76,12a.39.39,0,0,1,.41-.46h.24L24,11.59Z" transform="translate(0 -1.96)"/>
  <path d="M24,20.45a2.24,2.24,0,0,1-1.17.17H6.91c-.24,0-.48,0-.72,0a.41.41,0,0,1-.43-.46.39.39,0,0,1,.41-.46h.24L24,19.74Z" transform="translate(0 -1.96)"/>
  <path d="M1.91,2A1.91,1.91,0,0,1,3.79,3.87,2,2,0,0,1,1.86,5.76,1.92,1.92,0,0,1,0,3.83,1.87,1.87,0,0,1,1.91,2Zm0,1a.87.87,0,0,0-.89.9.85.85,0,0,0,.85.95.88.88,0,0,0,1-1A.9.9,0,0,0,1.87,2.92Z" transform="translate(0 -1.96)"/>
  <path d="M1.92,13.9A1.93,1.93,0,0,1,0,12,1.87,1.87,0,0,1,1.85,10.1,1.92,1.92,0,0,1,3.79,12,2,2,0,0,1,1.92,13.9ZM2.83,12a.91.91,0,0,0-.84-1,.83.83,0,0,0-1,.78.85.85,0,0,0,.86,1.05C2.39,13,2.71,12.59,2.83,12Z" transform="translate(0 -1.96)"/>
  <path d="M1.85,22A1.92,1.92,0,0,1,0,20.1a1.87,1.87,0,0,1,1.92-1.86,1.91,1.91,0,0,1,1.87,1.92A2,2,0,0,1,1.85,22Zm.07-1c.55-.1.91-.41.89-1a.86.86,0,0,0-1-.88.83.83,0,0,0-.8,1A.9.9,0,0,0,1.92,21.07Z" transform="translate(0 -1.96)"/>
</svg>
