<svg xmlns="http://www.w3.org/2000/svg" viewBox="0 0 21.84 24">
  <path d="M8.31,3.9l2.54-2.53V9a.41.41,0,0,0,.81,0V1.36l2.56,2.56a.4.4,0,0,0,.57,0,.42.42,0,0,0,0-.57L11.57.13A.42.42,0,0,0,11.43,0a.47.47,0,0,0-.17,0h0A.42.42,0,0,0,11,.12L7.74,3.34a.4.4,0,0,0,0,.56A.4.4,0,0,0,8.31,3.9Z"/>
  <path d="M21.84,6.77c0-.92-.27-1.12-1.16-1.12H14.47v.88H20.2c.69,0,.75.3.75.85,0,4.94,0,9.88,0,14.83,0,.7-.18.92-.91.92-3.08,0-6.17,0-9.26,0s-6,0-9,0c-.64,0-.87-.16-.87-.84q0-7.47,0-14.94c0-.6.17-.81.79-.81H8.15V5.66H0V24c7,0,13.94,0,20.9,0,.82,0,.93-.3.93-1C21.8,17.59,21.79,12.18,21.84,6.77Z"/>
  <path d="M2,8.24V21.41a.76.76,0,0,0,.76.76H19.11a.76.76,0,0,0,.76-.76V8.24a.76.76,0,0,0-.76-.76H14.47v.66h4.64a.11.11,0,0,1,.11.1V21.41a.11.11,0,0,1-.11.1H2.73a.11.11,0,0,1-.11-.1V8.24a.11.11,0,0,1,.11-.1H8.15V7.48H2.73A.76.76,0,0,0,2,8.24Z"/>
  <path d="M8.2,10.89h.46v-.69H8.21a2.89,2.89,0,0,0-2.8,2.37,1.94,1.94,0,0,1-.38.94l0,0a.39.39,0,0,0-.1.31.41.41,0,0,0,.13.27.85.85,0,0,1,.06,1.28A.86.86,0,0,0,5,16.48a1.87,1.87,0,0,1,.34,1.38c0,1.14.47,1.6,1.63,1.6h4l3.78,0c1.4,0,1.81-.41,1.81-1.8,0-.08,0-.15,0-.23a.77.77,0,0,1,.13-.65,1.14,1.14,0,0,0,.11-.11,1,1,0,0,0-.1-1.42.92.92,0,0,1-.2-.66.3.3,0,0,1,.08-.18.88.88,0,0,0,.41-.55,1,1,0,0,0-.3-.73.83.83,0,0,0-.08-.12,1,1,0,0,1-.09-.42A2.9,2.9,0,0,0,14,10.23v.69a2.21,2.21,0,0,1,1.7,1.47c.07.18.08.29,0,.34s-.1.08-.33.08H9.82c-1.1,0-2.23,0-3.35,0-.19,0-.31,0-.35-.08s0-.18.06-.37A2.13,2.13,0,0,1,8.2,10.89Zm7.64,7.21v.13a.57.57,0,0,1-.21.4.56.56,0,0,1-.45.14H6.72A.62.62,0,0,1,6,18.05a5,5,0,0,0,0-.55.4.4,0,0,1,0-.32c.06-.07.18-.1.38-.1h6.15c.92,0,1.84,0,2.78,0,.2,0,.33,0,.39.1a.5.5,0,0,1,.05.36A5.23,5.23,0,0,0,15.84,18.1ZM16.29,16a.38.38,0,0,1-.08.28.81.81,0,0,1-.54.11H6.23c-.4,0-.63,0-.63-.39s.23-.39.63-.39h9.44C16.07,15.6,16.29,15.62,16.29,16Zm-10-1.52.15-.05a1.64,1.64,0,0,1,1.35.1,1.62,1.62,0,0,0,1.48-.13.61.61,0,0,1,.66,0,2,2,0,0,0,2.15,0,.61.61,0,0,1,.66,0,1.69,1.69,0,0,0,1.76,0,.9.9,0,0,1,.83,0,1.87,1.87,0,0,0,.53.13.4.4,0,0,1,0,.19v.12a.17.17,0,0,1,0,.1.28.28,0,0,1-.19,0H10c-1.17,0-2.38,0-3.58,0H6.32a.36.36,0,0,1-.24,0A.27.27,0,0,1,6,14.75C6,14.53,6.08,14.51,6.27,14.47Zm0-1H11l4.47,0a4,4,0,0,1,.49,0,.16.16,0,0,1,.15.16s0,0-.13.06H15.9a3.57,3.57,0,0,0-2.42.16h0a2.24,2.24,0,0,0-2.29,0,1.24,1.24,0,0,1-1.09-.24.87.87,0,0,0-.53-.18,1,1,0,0,0-.53.17,1.18,1.18,0,0,1-1.33,0,.84.84,0,0,0-1-.05l-.09,0a.85.85,0,0,1-.73-.05.06.06,0,0,1,0-.05A.48.48,0,0,1,6.3,13.5Z"/>
</svg>
