<svg viewBox="0 0 17 14"
    xmlns="http://www.w3.org/2000/svg">
    <path d="M15.383 6.90592L16.5001 8.03092L11.29 13.2889L8.52136 10.4963L9.63838 9.37134L11.29 11.0309L15.383 6.90592ZM7.32455 0.124023C8.17099 0.124023 8.98275 0.460268 9.58127 1.05879C10.1798 1.65731 10.516 2.46907 10.516 3.31551C10.516 4.16194 10.1798 4.9737 9.58127 5.57222C8.98275 6.17074 8.17099 6.50699 7.32455 6.50699C6.47812 6.50699 5.66635 6.17074 5.06783 5.57222C4.46932 4.9737 4.13307 4.16194 4.13307 3.31551C4.13307 2.46907 4.46932 1.65731 5.06783 1.05879C5.66635 0.460268 6.47812 0.124023 7.32455 0.124023ZM7.32455 1.71976C6.90134 1.71976 6.49545 1.88789 6.19619 2.18715C5.89693 2.48641 5.72881 2.89229 5.72881 3.31551C5.72881 3.73872 5.89693 4.1446 6.19619 4.44386C6.49545 4.74312 6.90134 4.91125 7.32455 4.91125C7.74777 4.91125 8.15365 4.74312 8.45291 4.44386C8.75217 4.1446 8.92029 3.73872 8.92029 3.31551C8.92029 2.89229 8.75217 2.48641 8.45291 2.18715C8.15365 1.88789 7.74777 1.71976 7.32455 1.71976ZM7.32455 7.30486C7.8671 7.30486 8.52136 7.37667 9.24742 7.5123L7.91498 8.84475L7.32455 8.82081C4.95488 8.82081 2.45754 9.9857 2.45754 10.4963V11.374H7.40434L8.92029 12.8899H0.941589V10.4963C0.941589 8.374 5.19424 7.30486 7.32455 7.30486Z"/>
</svg>
