<svg xmlns="http://www.w3.org/2000/svg" viewBox="0 0 23.88 24">
  <path d="M12,0A11.9,11.9,0,0,0,1.68,17.83L0,24l6.3-1.66A11.89,11.89,0,1,0,12,0Zm0,2a9.89,9.89,0,0,1,0,19.78A9.73,9.73,0,0,1,7,20.4l-.36-.2-3.74,1,1-3.65-.24-.38A9.9,9.9,0,0,1,12,2ZM7.78,6.4a1.1,1.1,0,0,0-.8.37,3.42,3.42,0,0,0-1,2.48,5.92,5.92,0,0,0,1.2,3.07,13.27,13.27,0,0,0,5.1,4.48,15.46,15.46,0,0,0,1.69.64,4.25,4.25,0,0,0,1.87.12,3.06,3.06,0,0,0,2-1.42A2.55,2.55,0,0,0,18,14.72a1.53,1.53,0,0,0-.58-.32c-.3-.17-1.76-.89-2-1s-.44-.15-.67.14-.77,1-.93,1.16-.35.23-.64.09a8.27,8.27,0,0,1-2.4-1.48,9,9,0,0,1-1.66-2.06.45.45,0,0,1,.14-.6,4,4,0,0,0,.44-.53,1.8,1.8,0,0,0,.3-.49.55.55,0,0,0,0-.52C9.86,9,9.26,7.51,9,6.92s-.48-.5-.67-.51Z"/>
</svg>
